<svg xmlns="http://www.w3.org/2000/svg"
 xmlns:xlink="http://www.w3.org/1999/xlink"
 width="11px" height="19px"  viewBox="0 0 11 19">
<path fill-rule="evenodd"  fill="#535353"
 d="M9.520447,6.376953 C9.520447,6.376953 6.832947,6.376953 6.832947,6.376953 C6.832947,6.376953 6.832947,4.6572266 6.832947,4.6572266 C6.832947,4.0126953 7.2713623,3.8613281 7.5803833,3.8613281 C7.888672,3.8613281 9.476807,3.8613281 9.476807,3.8613281 C9.476807,3.8613281 9.476807,1.0234375 9.476807,1.0234375 C9.476807,1.0234375 6.864929,1.0136719 6.864929,1.0136719 C3.965271,1.0136719 3.305542,3.130371 3.305542,4.4848633 C3.305542,4.4848633 3.305542,6.376953 3.305542,6.376953 C3.305542,6.376953 1.6287842,6.376953 1.6287842,6.376953 C1.6287842,6.376953 1.6287842,9.300781 1.6287842,9.300781 C1.6287842,9.300781 3.305542,9.300781 3.305542,9.300781 C3.305542,13.053223 3.305542,17.575195 3.305542,17.575195 C3.305542,17.575195 6.832947,17.575195 6.832947,17.575195 C6.832947,17.575195 6.832947,13.008789 6.832947,9.300781 C6.832947,9.300781 9.212463,9.300781 9.212463,9.300781 C9.212463,9.300781 9.520447,6.376953 9.520447,6.376953 Z"/>
</svg>