<svg xmlns="http://www.w3.org/2000/svg"
 xmlns:xlink="http://www.w3.org/1999/xlink"
 width="21px" height="19px"  viewBox="0 0 21 19">
<path fill-rule="evenodd"  fill="#535353"
 d="M11.135132,8.818848 C11.135132,8.818848 11.135132,8.792969 11.135132,8.792969 C11.1297,8.801758 11.123413,8.810547 11.117981,8.818848 C11.117981,8.818848 11.135132,8.818848 11.135132,8.818848 ZM17.751343,1.2773438 C17.751343,1.2773438 3.2321167,1.2773438 3.2321167,1.2773438 C2.5372925,1.2773438 1.9735718,1.8134766 1.9735718,2.4750977 C1.9735718,2.4750977 1.9735718,16.799805 1.9735718,16.799805 C1.9735718,17.461426 2.5372925,17.998535 3.2321167,17.998535 C3.2321167,17.998535 17.751343,17.998535 17.751343,17.998535 C18.44696,17.998535 19.010681,17.461426 19.010681,16.799805 C19.010681,16.799805 19.010681,2.4750977 19.010681,2.4750977 C19.010681,1.8134766 18.44696,1.2773438 17.751343,1.2773438 ZM7.1376953,15.273926 C7.1376953,15.273926 4.564209,15.273926 4.564209,15.273926 C4.564209,15.273926 4.564209,7.723633 4.564209,7.723633 C4.564209,7.723633 7.1376953,7.723633 7.1376953,7.723633 C7.1376953,7.723633 7.1376953,15.273926 7.1376953,15.273926 ZM5.8511963,6.692383 C5.8511963,6.692383 5.8340454,6.692383 5.8340454,6.692383 C4.970703,6.692383 4.4124146,6.1137695 4.4124146,5.388672 C4.4124146,4.647461 4.988159,4.0839844 5.868164,4.0839844 C6.748352,4.0839844 7.2901,4.647461 7.30719,5.388672 C7.30719,6.1137695 6.748352,6.692383 5.8511963,6.692383 ZM16.416565,15.273926 C16.416565,15.273926 13.843506,15.273926 13.843506,15.273926 C13.843506,15.273926 13.843506,11.234375 13.843506,11.234375 C13.843506,10.219727 13.4713745,9.527832 12.539978,9.527832 C11.829346,9.527832 11.406006,9.994141 11.2196045,10.4453125 C11.151611,10.606445 11.135132,10.831543 11.135132,11.057129 C11.135132,11.057129 11.135132,15.273926 11.135132,15.273926 C11.135132,15.273926 8.561768,15.273926 8.561768,15.273926 C8.561768,15.273926 8.595398,8.432129 8.561768,7.723633 C8.561768,7.723633 11.135132,7.723633 11.135132,7.723633 C11.135132,7.723633 11.135132,8.792969 11.135132,8.792969 C11.477051,8.279297 12.088501,7.54541 13.45459,7.54541 C15.147339,7.54541 16.416565,8.625977 16.416565,10.9453125 C16.416565,10.9453125 16.416565,15.273926 16.416565,15.273926 Z"/>
</svg>