<svg xmlns="http://www.w3.org/2000/svg"
 xmlns:xlink="http://www.w3.org/1999/xlink"
 width="55px" height="59px"  viewBox="0 0 55 59">
<path fill-rule="evenodd"  fill="#f2374d"
 d="M12.373535,12.597168 C13.457764,12.597168 14.543213,12.182861 15.370239,11.352539 C15.761719,10.959961 15.761719,10.32251 15.370239,9.929199 C14.97876,9.535645 14.344971,9.535645 13.953491,9.929199 C13.082397,10.803711 11.663574,10.803711 10.79248,9.929199 C10.401001,9.535645 9.767212,9.535645 9.376709,9.929199 C8.9852295,10.32251 8.9852295,10.958984 9.376709,11.352539 C10.202759,12.182861 11.288086,12.597168 12.373535,12.597168 ZM17.275635,43.37671 C17.041382,42.873047 16.446533,42.656494 15.94397,42.89209 C15.443359,43.12671 15.227051,43.726807 15.461426,44.229492 C15.461426,44.229492 18.228882,50.172607 18.228882,50.172607 C18.399048,50.53784 18.759521,50.751953 19.135986,50.751953 C19.278076,50.751953 19.422241,50.721436 19.55957,50.65674 C20.060059,50.42212 20.276367,49.82202 20.042114,49.318848 C20.042114,49.318848 17.275635,43.37671 17.275635,43.37671 ZM42.623535,42.89209 C42.1239,42.655518 41.526123,42.87207 41.291748,43.37671 C41.291748,43.37671 38.524292,49.318848 38.524292,49.318848 C38.29004,49.82202 38.50525,50.42212 39.006836,50.65674 C39.144043,50.720947 39.28833,50.751953 39.43042,50.751953 C39.806885,50.751953 40.16736,50.53784 40.337524,50.172607 C40.337524,50.172607 43.10498,44.229492 43.10498,44.229492 C43.339355,43.726807 43.124023,43.12671 42.623535,42.89209 ZM34.05066,44.917236 C33.503906,44.835938 32.991333,45.20703 32.90625,45.756836 C32.90625,45.756836 31.98413,51.698975 31.98413,51.698975 C31.898926,52.24878 32.273438,52.764404 32.81909,52.849854 C32.871216,52.857666 32.923218,52.861572 32.97534,52.861572 C33.45996,52.861572 33.886475,52.506104 33.9635,52.010254 C33.9635,52.010254 34.885742,46.067627 34.885742,46.067627 C34.96985,45.51831 34.596436,45.002686 34.05066,44.917236 ZM24.516724,44.917236 C23.97107,45.002686 23.596558,45.51831 23.68164,46.067627 C23.68164,46.067627 24.60376,52.010254 24.60376,52.010254 C24.680908,52.506104 25.107422,52.861572 25.592041,52.861572 C25.643066,52.861572 25.69629,52.857666 25.748291,52.849854 C26.293945,52.764404 26.668457,52.24878 26.583374,51.698975 C26.583374,51.698975 25.661133,45.756836 25.661133,45.756836 C25.575073,45.20703 25.063354,44.835938 24.516724,44.917236 ZM29.285645,21.618652 C33.61609,21.618652 37.741333,21.061523 41.213623,20.007812 C41.743286,19.847168 42.042725,19.286133 41.882446,18.753418 C41.72229,18.222168 41.162598,17.92163 40.63391,18.081299 C37.3468,19.07837 33.421875,19.606201 29.284668,19.606201 C28.731934,19.606201 28.283447,20.055908 28.283447,20.612793 C28.283447,21.168945 28.733032,21.618652 29.285645,21.618652 ZM10.906616,29.166748 C11.907959,29.693604 12.979248,30.167236 14.091675,30.57373 C14.204712,30.615479 14.320923,30.635254 14.434082,30.635254 C14.842529,30.635254 15.227051,30.381836 15.374268,29.973877 C15.563477,29.450928 15.296143,28.874023 14.776489,28.684082 C13.747192,28.30664 12.756958,27.868652 11.833862,27.384521 C11.344238,27.124756 10.739502,27.31836 10.482056,27.809326 C10.226807,28.301758 10.416992,28.909424 10.906616,29.166748 ZM22.947754,32.62549 C24.957275,32.874023 26.991821,32.997803 29.0354,32.997803 C31.246094,32.997803 33.468994,32.851807 35.687744,32.562256 C36.23645,32.491455 36.622803,31.986328 36.551758,31.435059 C36.480713,30.883057 35.980103,30.49585 35.429443,30.566895 C31.326294,31.10254 27.208984,31.12378 23.192017,30.628418 C22.651367,30.560059 22.143677,30.952393 22.075562,31.50415 C22.008545,32.05713 22.399048,32.55835 22.947754,32.62549 ZM40.159424,30.726074 C40.281494,31.174316 40.68396,31.467773 41.124634,31.467773 C41.21167,31.467773 41.30078,31.457031 41.388794,31.432617 C43.60266,30.824707 45.58618,30.060791 47.283325,29.1604 C47.77185,28.89917 47.959106,28.29126 47.700806,27.799316 C47.44348,27.307861 46.83667,27.12085 46.348145,27.378174 C44.78015,28.210938 42.933838,28.921143 40.861206,29.489746 C40.328613,29.636963 40.01416,30.189453 40.159424,30.726074 ZM53.998657,32.867188 C53.998657,30.535156 52.74707,28.297363 50.36914,26.364746 C50.438232,25.986328 50.473267,25.60669 50.473267,25.230713 C50.473267,22.26831 48.426636,19.50708 44.69397,17.413574 C44.605835,15.363281 43.990234,8.766602 39.790894,4.9194336 C37.421997,2.7504883 34.343018,1.8361816 30.630371,2.2070312 C30.286987,2.241211 29.985596,2.4509277 29.832397,2.7612305 C29.6792,3.0734863 29.69629,3.4421387 29.876465,3.7373047 C30.510132,4.7736816 31.620605,7.274658 31.008911,8.387207 C30.745605,8.867432 30.078613,9.115723 29.027466,9.125732 C26.444092,9.1521 23.921875,9.477051 21.657104,10.044189 C21.351807,9.612061 21.015259,9.197266 20.634766,8.814941 C18.231812,6.4003906 15.061768,5.316162 12.179199,5.6220703 C11.741699,4.786865 11.0979,3.8969727 10.144653,3.142334 C8.134155,1.548584 5.367676,1.0095215 1.9233398,1.541748 C1.376709,1.626709 1.0012207,2.1396484 1.0853271,2.6889648 C1.168457,3.2399902 1.6860352,3.6169434 2.2268066,3.5314941 C5.088379,3.0915527 7.3291016,3.4863281 8.885132,4.7075195 C9.4227295,5.128662 9.821289,5.6152344 10.131714,6.100342 C9.091309,6.484619 8.13208,7.076416 7.319092,7.893799 C7.319092,7.893799 6.4039307,8.813965 6.4039307,8.813965 C2.9846191,12.251465 3.3962402,18.256104 7.319092,22.199463 C7.5583496,22.44043 7.808716,22.662354 8.067993,22.873047 C7.7597656,23.657227 7.602417,24.447021 7.602417,25.229736 C7.602417,25.60669 7.6375732,25.986328 7.7056885,26.36377 C5.3286133,28.296875 4.07605,30.533691 4.07605,32.86621 C4.07605,34.563477 4.73291,36.193848 6.0164795,37.71875 C6.0164795,37.71875 9.797241,47.081055 9.797241,47.081055 C9.797241,47.081055 9.845337,47.184082 9.845337,47.184082 C13.033325,53.07617 15.72168,54.57715 21.543945,56.820312 C23.576538,57.60376 26.436035,57.996094 29.292725,57.996094 C32.15027,57.996094 35.004883,57.60376 37.023438,56.819336 C42.855713,54.553955 45.542114,53.05713 48.66809,47.27832 C48.66809,47.27832 53.525146,35.303223 53.525146,35.303223 C53.525146,35.303223 53.52307,35.30078 53.52307,35.30078 C53.836548,34.50049 53.998657,33.684082 53.998657,32.867188 ZM7.819824,10.237061 C7.819824,10.237061 8.734985,9.317139 8.734985,9.317139 C9.367676,8.680908 10.123657,8.237549 10.9436035,7.9492188 C11.051758,8.360107 11.087891,8.644531 11.089844,8.662598 C11.135864,9.186035 11.57251,9.581299 12.086182,9.581299 C12.114136,9.581299 12.142212,9.579834 12.170288,9.576904 C12.721924,9.530762 13.130371,9.044678 13.084351,8.489746 C13.080322,8.4470215 13.04834,8.104492 12.923218,7.588867 C12.996216,7.586914 13.066284,7.569824 13.139404,7.569824 C15.232056,7.569824 17.467773,8.4765625 19.218018,10.237061 C19.657715,10.6779785 20.026123,11.169922 20.337402,11.691895 C20.339478,11.694336 20.338501,11.698242 20.340454,11.70166 C20.978271,12.776855 21.312622,13.960205 21.371826,15.14624 C21.37378,15.192871 21.377808,15.2404785 21.378784,15.2890625 C21.38977,15.657471 21.375854,16.025635 21.332642,16.39087 C21.327759,16.430176 21.320679,16.469482 21.315674,16.50879 C21.215576,17.257812 21.001343,17.991455 20.677856,18.682129 C20.658813,18.7229 20.639893,18.764648 20.619873,18.804932 C20.457642,19.134766 20.270386,19.455078 20.057129,19.761963 C20.0271,19.80542 19.994019,19.846191 19.963013,19.889893 C19.73877,20.19873 19.494385,20.497803 19.219116,20.775635 C18.923706,21.072266 18.605225,21.334473 18.273926,21.572021 C18.246948,21.590576 18.220825,21.612793 18.193726,21.63086 C17.859375,21.862793 17.509888,22.064941 17.148438,22.23584 C17.129517,22.244629 17.11145,22.253906 17.092407,22.261719 C15.968994,22.783691 14.73645,23.01001 13.512939,22.935547 C13.483887,22.93335 13.455811,22.93335 13.42688,22.931396 C13.03833,22.903564 12.650879,22.842041 12.268311,22.752686 C12.2323,22.743408 12.196167,22.73413 12.160278,22.724854 C11.776733,22.628662 11.397217,22.503906 11.028809,22.342773 C11.012817,22.33545 10.996826,22.32666 10.980713,22.319336 C10.60022,22.15039 10.22876,21.95044 9.872314,21.711426 C9.869385,21.709473 9.865356,21.709473 9.863281,21.70752 C9.461792,21.4375 9.083374,21.125732 8.734985,20.774658 C5.5930176,17.616943 5.182373,12.889404 7.819824,10.237061 ZM9.423828,27.573975 C9.76123,27.323242 9.907349,26.885254 9.789185,26.480713 C9.667114,26.063965 9.60498,25.643555 9.60498,25.230713 C9.60498,24.824707 9.669067,24.4104 9.79834,23.98999 C9.871338,24.026855 9.945435,24.055908 10.019531,24.089111 C10.55127,24.337646 11.10498,24.533936 11.675537,24.677979 C11.761719,24.70044 11.847778,24.724121 11.934937,24.743164 C12.102173,24.780518 12.270264,24.809326 12.439575,24.83789 C12.539673,24.853516 12.639893,24.869385 12.740967,24.88208 C12.90918,24.904297 13.077393,24.924316 13.246582,24.936523 C13.341675,24.94336 13.43689,24.946533 13.531982,24.95044 C13.680176,24.957764 13.8272705,24.972412 13.977539,24.972412 C14.45813,24.972412 14.9296875,24.925781 15.39624,24.85498 C15.436279,24.848633 15.475342,24.84375 15.515381,24.83789 C15.733643,24.802002 15.948975,24.7583 16.162231,24.706787 C16.182251,24.701904 16.20227,24.697021 16.22229,24.692139 C16.908081,24.52417 17.569946,24.281738 18.198853,23.963135 C18.211792,23.957031 18.223755,23.951172 18.236816,23.944824 C18.401001,23.861328 18.560303,23.769531 18.719482,23.67627 C18.808472,23.62378 18.897705,23.57129 18.984741,23.516357 C19.112915,23.434814 19.239136,23.351318 19.364258,23.263916 C19.490356,23.175049 19.613647,23.080322 19.736694,22.986084 C19.827759,22.914307 19.92102,22.846191 20.009033,22.770508 C20.224365,22.590332 20.433594,22.402344 20.634766,22.199463 C20.94226,21.890625 21.216553,21.559814 21.474854,21.217041 C21.52893,21.145752 21.582031,21.075684 21.633057,21.00293 C22.13269,20.30249 22.530273,19.54248 22.81958,18.739258 C22.841553,18.677734 22.863647,18.618896 22.884766,18.557617 C23.151978,17.766113 23.313232,16.936768 23.364258,16.08496 C23.369263,15.994629 23.374268,15.904785 23.37732,15.813965 C23.380371,15.711914 23.392334,15.610352 23.392334,15.5061035 C23.392334,14.730469 23.289185,13.972412 23.109985,13.237549 C23.102905,13.210449 23.096924,13.18335 23.089966,13.155029 C22.977783,12.711182 22.842651,12.27417 22.667358,11.853516 C24.642944,11.406738 26.823608,11.161133 29.04834,11.138184 C30.876709,11.117432 32.126343,10.52002 32.76306,9.356445 C33.638184,7.760254 32.97534,5.5788574 32.3385,4.140381 C34.77954,4.171875 36.82715,4.9294434 38.436157,6.4003906 C42.688477,10.28833 42.706543,17.938965 42.706543,18.01587 C42.705444,18.39209 42.91382,18.739258 43.246216,18.913574 C46.61548,20.675537 48.4718,22.918213 48.4718,25.228271 C48.4718,25.640137 48.409668,26.060791 48.287598,26.47876 C48.169434,26.8833 48.314575,27.3208 48.652954,27.571533 C50.178833,28.707275 51.99817,30.545898 51.99817,32.864746 C51.99817,33.23242 51.95117,33.603027 51.855957,33.974365 C51.835938,33.964355 51.813965,33.961914 51.793945,33.953125 C51.535645,33.833252 51.26819,33.736572 50.98889,33.671387 C50.954834,33.663086 50.91992,33.659668 50.885864,33.6521 C50.61035,33.594727 50.328125,33.560303 50.03479,33.554443 C50.01172,33.554443 49.989624,33.550537 49.966675,33.550537 C49.66919,33.548096 49.361816,33.57959 49.048462,33.630127 C48.987427,33.639893 48.92627,33.64917 48.864258,33.661133 C48.55591,33.72046 48.241455,33.802002 47.920044,33.91089 C47.860962,33.931152 47.80188,33.95508 47.74292,33.97632 C47.42444,34.09204 47.101074,34.226562 46.77063,34.38965 C46.746582,34.401855 46.723633,34.411133 46.698486,34.423096 C46.3562,34.595215 46.00769,34.800537 45.65625,35.02295 C45.584106,35.068115 45.51306,35.112305 45.442017,35.158936 C45.096558,35.385254 44.748047,35.63623 44.39563,35.909668 C44.327637,35.96216 44.260498,36.018555 44.192383,36.072754 C43.8219,36.370117 43.449463,36.68286 43.07202,37.031006 C40.407593,35.211426 36.697998,36.416748 33.923462,38.828857 C31.240112,36.75952 27.464478,36.760986 24.783081,38.83081 C24.572754,38.650635 24.356567,38.47827 24.137207,38.3125 C24.072144,38.26294 24.005981,38.216064 23.939941,38.168457 C23.775879,38.04883 23.60962,37.933838 23.441406,37.822998 C23.373291,37.777832 23.305176,37.732666 23.23706,37.689453 C23.00879,37.54492 22.778564,37.40747 22.54419,37.280518 C22.542236,37.27954 22.541138,37.27881 22.539185,37.277832 C22.302979,37.149902 22.062622,37.0354 21.822266,36.92749 C21.753296,36.895996 21.68518,36.868896 21.616089,36.8396 C21.434814,36.763428 21.252563,36.692627 21.070312,36.62744 C21.000366,36.601807 20.931152,36.577393 20.862183,36.555176 C20.618896,36.47583 20.374512,36.403076 20.131226,36.34668 C20.131226,36.34668 20.130249,36.34668 20.130249,36.34668 C19.884888,36.289062 19.639648,36.247803 19.395264,36.216064 C19.3302,36.206787 19.265137,36.20117 19.199097,36.195312 C19.01477,36.176758 18.830566,36.165527 18.648438,36.161377 C18.606323,36.1604 18.564331,36.153564 18.523193,36.153564 C18.498169,36.153564 18.473145,36.158447 18.44812,36.158447 C17.968506,36.16455 17.498901,36.226807 17.044312,36.350586 C16.982178,36.367676 16.92212,36.388916 16.860107,36.40796 C16.689941,36.460938 16.522705,36.523926 16.35852,36.595947 C16.296387,36.623535 16.235352,36.648438 16.174316,36.678955 C15.959961,36.78296 15.748779,36.898438 15.54541,37.036377 C15.308105,36.817383 15.071777,36.61035 14.836548,36.411865 C14.760498,36.348633 14.686401,36.290527 14.611328,36.229248 C14.45105,36.098145 14.29187,35.968018 14.13269,35.847168 C14.045532,35.781006 13.958496,35.71875 13.872437,35.654785 C13.727173,35.54834 13.582031,35.442627 13.43689,35.343018 C13.345703,35.28076 13.254639,35.22119 13.164429,35.161865 C13.026245,35.071533 12.88916,34.983643 12.751953,34.900146 C12.65979,34.845215 12.567749,34.790283 12.4765625,34.73828 C12.341431,34.660645 12.207275,34.586914 12.074097,34.517822 C11.984985,34.470703 11.894897,34.424072 11.805786,34.38086 C11.670654,34.314453 11.5373535,34.255127 11.404297,34.196777 C11.319092,34.159424 11.234009,34.121094 11.149902,34.08716 C11.010742,34.03076 10.873535,33.982178 10.73645,33.93506 C10.661377,33.908447 10.585205,33.879883 10.511108,33.856445 C10.352905,33.806885 10.197754,33.76709 10.04248,33.72827 C9.991455,33.71704 9.939453,33.699707 9.889404,33.688477 C9.684082,33.6438 9.482788,33.608887 9.284668,33.585938 C9.244629,33.581055 9.205444,33.581543 9.165405,33.577637 C9.009277,33.562744 8.853149,33.551514 8.700928,33.54956 C8.629761,33.550537 8.563721,33.55542 8.496582,33.557373 C8.374512,33.56128 8.253296,33.565186 8.134155,33.578613 C8.061035,33.586914 7.9890137,33.598633 7.91687,33.609375 C7.8067627,33.62671 7.697632,33.64624 7.5914307,33.67041 C7.5183105,33.6875 7.4472656,33.707275 7.3762207,33.727783 C7.2730713,33.757812 7.169922,33.790527 7.069824,33.82837 C7.001709,33.854492 6.9335938,33.882324 6.866577,33.911865 C6.765381,33.956055 6.666382,34.00464 6.5682373,34.05664 C6.5061035,34.0896 6.4439697,34.12256 6.3829346,34.159424 C6.350952,34.178467 6.3168945,34.193604 6.284912,34.21338 C6.1486816,33.76758 6.07959,33.31787 6.07959,32.867188 C6.07959,30.54834 7.897949,28.709229 9.423828,27.573975 ZM46.882812,46.367676 C44.063232,51.561523 41.856445,52.7854 36.30249,54.94336 C32.775024,56.31299 25.819336,56.313965 22.26184,54.942383 C16.71997,52.805176 14.513184,51.579834 11.632568,46.27295 C11.632568,46.27295 7.819824,36.830566 7.819824,36.830566 C7.819824,36.82959 7.819824,36.828613 7.8187256,36.827637 C7.8187256,36.827637 7.4332275,35.875244 7.4332275,35.875244 C9.9053955,34.472656 13.954468,38.269287 14.789551,39.09546 C14.789551,39.09546 15.492432,39.790283 15.492432,39.790283 C15.492432,39.790283 16.195312,39.09546 16.195312,39.09546 C18.41101,36.901855 22.113647,38.973145 24.062134,40.902344 C24.062134,40.902344 24.768066,41.60083 24.768066,41.60083 C24.768066,41.60083 25.470825,40.898193 25.470825,40.898193 C27.610596,38.757324 31.09497,38.757324 33.236694,40.898193 C33.236694,40.898193 33.942505,41.60376 33.942505,41.60376 C33.942505,41.60376 34.649414,40.898193 34.649414,40.898193 C36.42871,39.117676 39.68982,37.22046 41.899536,38.677734 C42.07776,38.79541 42.250977,38.92798 42.414185,39.091553 C42.414185,39.091553 43.11902,39.796143 43.11902,39.796143 C43.11902,39.796143 43.82495,39.094482 43.82495,39.094482 C43.82495,39.094482 43.825928,39.094482 43.825928,39.093506 C43.93506,38.98462 44.10022,38.823486 44.30847,38.63159 C44.327637,38.61328 44.350586,38.59326 44.370605,38.575195 C44.454712,38.498535 44.543823,38.41797 44.639893,38.33252 C44.68506,38.293213 44.73401,38.250977 44.781128,38.209717 C44.86133,38.140137 44.941406,38.0708 45.028442,37.99829 C45.090576,37.945557 45.157593,37.8916 45.222656,37.838135 C45.301758,37.773926 45.38098,37.709473 45.46399,37.64331 C45.541016,37.581787 45.621216,37.520508 45.70227,37.460205 C45.781372,37.39917 45.860474,37.340332 45.94165,37.27954 C46.029663,37.21411 46.12085,37.149902 46.211914,37.086426 C46.292114,37.03003 46.37317,36.97461 46.4552,36.918945 C46.550293,36.855225 46.646484,36.79297 46.74463,36.72998 C46.828735,36.676514 46.91284,36.62549 46.997925,36.573975 C47.097046,36.513428 47.19812,36.45508 47.299316,36.39868 C47.386353,36.350586 47.47351,36.304443 47.56067,36.25879 C47.661743,36.206787 47.76294,36.15454 47.86499,36.106934 C47.956177,36.06372 48.04724,36.02588 48.139282,35.987305 C48.239502,35.94507 48.3396,35.902832 48.43872,35.86548 C48.533813,35.83008 48.628906,35.802002 48.724,35.772705 C48.82019,35.742676 48.915283,35.71118 49.011475,35.688232 C49.114502,35.663086 49.2157,35.64746 49.31775,35.63037 C49.40393,35.614502 49.48999,35.596924 49.575195,35.587646 C49.694336,35.575195 49.80945,35.577637 49.926636,35.578613 C49.992676,35.578613 50.059692,35.572754 50.12378,35.577637 C50.479248,35.60376 50.81775,35.70044 51.13208,35.87915 C51.13208,35.87915 46.882812,46.367676 46.882812,46.367676 Z"/>
</svg>