<svg xmlns="http://www.w3.org/2000/svg"
 xmlns:xlink="http://www.w3.org/1999/xlink"
 width="56px" height="56px"  viewBox="0 0 56 56">
<path fill-rule="evenodd"  fill="#4fb1c9"
 d="M22.960022,26.271484 C23.511047,26.271484 23.958221,25.824219 23.958221,25.27002 C23.958221,25.27002 23.958221,21.605957 23.958221,21.605957 C23.958221,21.456543 23.946228,21.309326 23.936218,21.163086 C23.936218,21.163086 24.243652,21.471436 24.243652,21.471436 C24.438324,21.666748 24.693909,21.764893 24.949402,21.764893 C25.204956,21.764893 25.46045,21.666748 25.65509,21.471436 C25.65509,21.471436 25.978485,21.146973 25.978485,21.146973 C25.96753,21.299072 25.955597,21.451172 25.955597,21.606934 C25.955597,21.606934 25.955597,25.270996 25.955597,25.270996 C25.955597,25.824707 26.402771,26.27246 26.953735,26.27246 C26.953735,26.27246 30.605164,26.27246 30.605164,26.27246 C34.095795,26.27246 36.93564,23.422852 36.93564,19.920898 C36.93564,19.920898 36.93564,16.255371 36.93564,16.255371 C36.93564,15.70166 36.488464,15.254395 35.93744,15.254395 C35.93744,15.254395 32.286102,15.254395 32.286102,15.254395 C31.459534,15.254395 30.671997,15.418213 29.947296,15.708984 C30.374542,13.67627 29.807587,11.472412 28.237457,9.897461 C28.237457,9.897461 25.65509,7.3061523 25.65509,7.3061523 C25.264862,6.9143066 24.634003,6.9143066 24.243652,7.3061523 C24.243652,7.3061523 21.66034,9.896484 21.66034,9.896484 C20.092224,11.469482 19.524231,13.67041 19.949463,15.701172 C19.229828,15.414307 18.448181,15.251953 17.627655,15.251953 C17.627655,15.251953 13.976318,15.251953 13.976318,15.251953 C13.425293,15.251953 12.978088,15.700195 12.978088,16.253906 C12.978088,16.253906 12.978088,19.918457 12.978088,19.918457 C12.978088,23.42041 15.817963,26.270508 19.308594,26.270508 C19.308594,26.270508 22.960022,26.270508 22.960022,26.270508 C22.960022,26.270508 22.960022,26.271484 22.960022,26.271484 ZM34.938263,17.256348 C34.938263,17.256348 34.938263,19.919922 34.938263,19.919922 C34.938263,22.31836 32.993835,24.267822 30.604095,24.267822 C30.604095,24.267822 27.950989,24.267822 27.950989,24.267822 C27.950989,24.267822 27.950989,21.605957 27.950989,21.605957 C27.950989,19.207031 29.895416,17.256348 32.285034,17.256348 C32.285034,17.256348 34.938263,17.256348 34.938263,17.256348 ZM23.071777,11.312256 C23.071777,11.312256 24.948425,9.428955 24.948425,9.428955 C24.948425,9.428955 26.824982,11.312256 26.824982,11.312256 C28.513947,13.007568 28.513947,15.766846 26.824982,17.462646 C26.824982,17.462646 24.948425,19.345947 24.948425,19.345947 C24.948425,19.345947 23.071777,17.462646 23.071777,17.462646 C21.382843,15.766846 21.382843,13.007568 23.071777,11.312256 ZM14.974518,19.919922 C14.974518,19.919922 14.974518,17.256348 14.974518,17.256348 C14.974518,17.256348 17.627655,17.256348 17.627655,17.256348 C20.017365,17.256348 21.961823,19.207031 21.961823,21.605957 C21.961823,21.605957 21.961823,24.267822 21.961823,24.267822 C21.961823,24.267822 19.308594,24.267822 19.308594,24.267822 C16.918976,24.267822 14.974518,22.316895 14.974518,19.919922 ZM27.950989,34.056152 C26.299988,34.056152 24.95636,35.40503 24.95636,37.061523 C24.95636,37.061523 26.952759,37.061523 26.952759,37.061523 C26.952759,36.508545 27.401001,36.059814 27.950989,36.059814 C28.500977,36.059814 28.949097,36.508545 28.949097,37.061523 C28.949097,37.061523 30.945526,37.061523 30.945526,37.061523 C30.945526,35.40503 29.60199,34.056152 27.950989,34.056152 ZM35.936462,35.05835 C34.28546,35.05835 32.941956,36.406494 32.941956,38.063477 C32.941956,38.063477 34.938263,38.063477 34.938263,38.063477 C34.938263,37.510742 35.386505,37.061523 35.936462,37.061523 C36.48645,37.061523 36.934692,37.510742 36.934692,38.063477 C36.934692,38.063477 38.93103,38.063477 38.93103,38.063477 C38.93103,36.406494 37.587463,35.05835 35.936462,35.05835 ZM43.437866,31.25 C43.437866,31.25 46.88257,18.288086 46.88257,18.288086 C46.904602,18.204102 46.916504,18.117188 46.916504,18.029785 C46.916504,16.925049 46.02118,16.026611 44.920166,16.026611 C44.920166,16.026611 42.923767,16.026611 42.923767,16.026611 C42.55945,16.026611 42.22003,16.130127 41.925537,16.301514 C41.925537,16.301514 41.925537,2.0026855 41.925537,2.0026855 C41.925537,1.4489746 41.478394,1.0012207 40.92743,1.0012207 C40.92743,1.0012207 9.989563,1.0012207 9.989563,1.0012207 C9.984528,1.0012207 9.979553,1.0041504 9.974609,1.0041504 C9.969543,1.0041504 9.9646,1.0012207 9.959625,1.0012207 C9.959625,1.0012207 2.9962769,1.0012207 2.9962769,1.0012207 C2.4452515,1.0012207 1.9980774,1.4489746 1.9980774,2.0026855 C1.9980774,2.0026855 1.9980774,48.08008 1.9980774,48.08008 C1.9980774,48.480225 2.2356262,48.84204 2.6019287,49.000732 C2.6019287,49.000732 9.565277,52.00586 9.565277,52.00586 C9.692139,52.059814 9.825836,52.086914 9.959625,52.086914 C9.965637,52.086914 9.971558,52.08496 9.97757,52.08496 C9.981567,52.08496 9.985565,52.086914 9.989563,52.086914 C9.989563,52.086914 25.275818,52.086914 25.275818,52.086914 C28.168518,53.920166 31.582397,54.997803 35.249725,54.997803 C45.58893,54.997803 54.001648,46.55664 54.001648,36.181152 C54.001648,36.181152 54.001648,36.07666 54.001648,36.07666 C54.001648,33.08716 47.83893,31.792969 43.437866,31.25 ZM42.923767,18.029785 C42.923767,18.029785 44.885193,18.029785 44.885193,18.029785 C44.885193,18.029785 41.210876,31.858154 41.210876,31.858154 C41.210876,31.85913 41.210876,31.85962 41.210876,31.85962 C41.210876,31.86206 41.2099,31.863037 41.2099,31.863037 C41.2099,31.863037 40.61499,34.156006 40.61499,34.156006 C40.476257,34.690674 40.795654,35.23755 41.329712,35.37793 C41.413513,35.398926 41.498413,35.4104 41.581177,35.4104 C42.024475,35.4104 42.429688,35.11133 42.54651,34.660645 C42.54651,34.660645 42.92279,33.210205 42.92279,33.210205 C49.73645,34.016357 52.00531,35.599365 52.00531,36.078125 C52.00531,37.063965 46.304626,39.37622 35.249725,39.37622 C24.194733,39.37622 18.49414,37.063965 18.49414,36.078125 C18.49414,35.09131 24.194733,32.77881 35.249725,32.77881 C35.840637,32.77881 36.406647,32.801758 36.981598,32.81665 C36.981598,32.81665 36.79489,33.561768 36.79489,33.561768 C36.660126,34.098877 36.98456,34.64258 37.519592,34.778076 C37.60141,34.799072 37.68332,34.80786 37.7641,34.80786 C38.210327,34.80786 38.616577,34.504395 38.731415,34.050293 C38.731415,34.050293 39.22046,32.101807 39.22046,32.101807 C39.22046,32.101807 39.22046,32.101807 39.22046,32.101807 C39.22046,32.101807 42.89087,18.288086 42.89087,18.288086 C42.91278,18.204102 42.923767,18.117188 42.923767,18.029785 ZM8.961426,49.56372 C8.961426,49.56372 3.9943848,47.419678 3.9943848,47.419678 C3.9943848,47.419678 3.9943848,3.0043945 3.9943848,3.0043945 C3.9943848,3.0043945 8.961426,3.0043945 8.961426,3.0043945 C8.961426,3.0043945 8.961426,49.56372 8.961426,49.56372 ZM22.624603,50.08374 C22.624603,50.08374 10.987793,50.08374 10.987793,50.08374 C10.987793,50.08374 10.987793,3.0043945 10.987793,3.0043945 C10.987793,3.0043945 39.92923,3.0043945 39.92923,3.0043945 C39.92923,3.0043945 39.92923,21.65503 39.92923,21.65503 C39.92923,21.65503 37.495636,30.813477 37.495636,30.813477 C36.75998,30.790283 36.0123,30.775146 35.249725,30.775146 C28.76352,30.775146 16.497742,31.882812 16.497742,36.078125 C16.497742,36.078125 16.497742,36.18213 16.497742,36.18213 C16.497742,36.843506 16.533691,37.496338 16.600525,38.13965 C16.620483,38.330566 16.661469,38.51709 16.687408,38.70752 C16.747314,39.156494 16.80719,39.605225 16.899048,40.04248 C16.950928,40.291992 17.026733,40.53247 17.087677,40.779053 C17.180481,41.147217 17.267334,41.517334 17.381134,41.87671 C17.472015,42.163086 17.585785,42.439453 17.689545,42.720215 C17.802368,43.02466 17.90918,43.333008 18.036957,43.630127 C18.167725,43.93335 18.319458,44.226562 18.466217,44.523193 C18.59497,44.783203 18.71875,45.047363 18.859406,45.30078 C19.026123,45.601807 19.210846,45.891357 19.393463,46.182617 C19.541199,46.4187 19.68692,46.65576 19.844666,46.884033 C20.03833,47.164062 20.244904,47.43213 20.453583,47.70117 C20.631256,47.93091 20.808899,48.15918 20.996582,48.37964 C21.203156,48.621582 21.41983,48.856445 21.639374,49.090088 C21.861023,49.325195 22.085602,49.554443 22.319153,49.77832 C22.425964,49.875977 22.517792,49.986572 22.624603,50.08374 ZM35.2507,52.99463 C31.838928,52.99463 28.66565,51.960693 26.015503,50.196777 C25.888672,50.112305 25.766876,50.02246 25.643188,49.935547 C25.357666,49.733643 25.077179,49.52466 24.804626,49.306152 C24.70581,49.22705 24.604065,49.149902 24.507172,49.067383 C24.151825,48.769043 23.808502,48.457275 23.480072,48.130127 C23.41922,48.068848 23.36029,48.00708 23.300385,47.94458 C22.975952,47.61328 22.662567,47.271973 22.367126,46.914062 C22.34909,46.893555 22.330109,46.871826 22.31314,46.85132 C21.993774,46.461426 21.69336,46.056885 21.40982,45.63916 C21.375885,45.588867 21.341919,45.53784 21.309021,45.486816 C20.755035,44.65332 20.274841,43.768066 19.873657,42.8396 C19.840637,42.761963 19.806702,42.684814 19.77475,42.6084 C19.587158,42.15625 19.416443,41.69409 19.268738,41.223877 C19.249756,41.164307 19.234772,41.103516 19.216858,41.044678 C19.087067,40.616455 18.976227,40.17993 18.88144,39.73828 C18.862457,39.65039 18.840515,39.56299 18.82251,39.47412 C18.776642,39.24414 18.752594,39.009033 18.715698,38.776367 C22.548798,40.77417 30.468384,41.37793 35.249725,41.37793 C40.032043,41.37793 47.950684,40.77417 51.78369,38.776367 C50.533997,46.816895 43.607544,52.99463 35.2507,52.99463 Z"/>
</svg>