<svg xmlns="http://www.w3.org/2000/svg"
 xmlns:xlink="http://www.w3.org/1999/xlink"
 width="61px" height="60px"  viewBox="0 0 61 60">
<path fill-rule="evenodd"  fill="#4b811b"
 d="M25.208374,16.822021 C25.328857,16.867676 25.452393,16.890625 25.573975,16.890625 C25.97461,16.890625 26.354126,16.649658 26.509766,16.257812 C26.71167,15.746826 26.455566,15.170898 25.94043,14.971436 C24.444214,14.393066 23.702148,12.717529 24.287598,11.237305 C24.87207,9.75708 26.565063,9.022949 28.062256,9.602295 C28.58142,9.799316 29.161865,9.549805 29.363647,9.03833 C29.565552,8.526611 29.309448,7.951172 28.794312,7.751953 C26.26184,6.7753906 23.405884,8.015137 22.41687,10.515137 C21.427612,13.015625 22.680908,15.845459 25.208374,16.822021 ZM54.4812,19.953857 C53.973145,20.174316 53.742188,20.76001 53.96411,21.262207 C54.277466,21.967285 54.29248,22.75122 54.0094,23.467041 C53.726074,24.184326 53.177856,24.749512 52.464844,25.05835 C51.751953,25.367188 50.960693,25.3833 50.23462,25.103027 C49.50952,24.823242 48.938232,24.279785 48.625854,23.574707 C48.40393,23.072998 47.814453,22.843994 47.303467,23.062988 C46.795288,23.283447 46.56433,23.868652 46.786255,24.371094 C47.313477,25.562012 48.278442,26.47876 49.502563,26.95288 C50.083984,27.177246 50.69043,27.289307 51.29602,27.289307 C51.966797,27.289307 52.636597,27.151367 53.270264,26.877441 C54.474243,26.355469 55.401123,25.401123 55.880127,24.189453 C56.35913,22.97754 56.331055,21.654541 55.803833,20.463379 C55.58191,19.963135 54.99243,19.735352 54.4812,19.953857 ZM40.454834,17.195557 C39.9729,17.465576 39.802246,18.071533 40.075317,18.549072 C40.458008,19.218262 40.55432,19.997559 40.346436,20.738281 C40.137573,21.480713 39.649536,22.0979 38.97168,22.476807 C38.293823,22.856445 37.50659,22.949707 36.758423,22.744873 C36.008423,22.53833 35.384766,22.055664 35.00122,21.385498 C34.729004,20.907227 34.114502,20.739258 33.633423,21.009277 C33.15149,21.279785 32.980713,21.885742 33.253906,22.363525 C34.157715,23.9458 35.828613,24.835938 37.546753,24.835938 C38.36621,24.835938 39.19763,24.6333 39.95984,24.20752 C41.104614,23.567383 41.928955,22.52539 42.281494,21.271973 C42.63391,20.018555 42.470337,18.704834 41.82361,17.572754 C41.550537,17.093994 40.93689,16.925537 40.454834,17.195557 ZM31.885132,18.988037 C32.575073,19.318115 33.3031,19.474121 34.022095,19.474121 C35.850708,19.474121 37.611084,18.462158 38.46057,16.726807 C38.701538,16.23291 38.492676,15.63916 37.993652,15.399658 C37.491577,15.160156 36.893066,15.368164 36.651978,15.861084 C35.95215,17.292725 34.20581,17.89087 32.759888,17.20044 C31.313843,16.5083 30.706299,14.779541 31.40625,13.350342 C31.647217,12.856445 31.438354,12.262939 30.939209,12.023193 C30.43811,11.783691 29.8396,11.992432 29.597656,12.484863 C28.416748,14.900879 29.442017,17.818604 31.885132,18.988037 ZM24.41809,24.640137 C25.049683,24.913574 25.718506,25.050537 26.388306,25.050537 C26.994873,25.050537 27.603394,24.937988 28.184814,24.712646 C29.409912,24.238037 30.373901,23.32129 30.899048,22.12915 C31.12207,21.626465 30.889038,21.040771 30.380981,20.82129 C29.868774,20.601807 29.280273,20.833008 29.059448,21.333496 C28.74707,22.038818 28.176758,22.58252 27.451782,22.863281 C26.727661,23.144043 25.936401,23.13086 25.221436,22.820557 C23.749268,22.183838 23.075562,20.481201 23.71814,19.02539 C23.941162,18.522705 23.70813,17.936523 23.200073,17.717041 C22.68689,17.498047 22.099487,17.72876 21.87854,18.229492 C20.792969,20.687744 21.93274,23.564941 24.41809,24.640137 ZM37.08081,14.188477 C37.24048,14.203613 37.400146,14.210449 37.559814,14.210449 C38.699585,14.210449 39.794067,13.823242 40.683838,13.096924 C42.77649,11.387939 43.07483,8.312988 41.347656,6.243164 C40.99414,5.821045 40.363525,5.758545 39.933716,6.109131 C39.50586,6.45874 39.44568,7.084717 39.798218,7.507324 C40.82141,8.733398 40.644653,10.553711 39.40454,11.565186 C38.805054,12.0546875 38.056885,12.28833 37.271606,12.2109375 C36.497437,12.137695 35.797485,11.77002 35.30249,11.175781 C34.948975,10.753662 34.31836,10.691406 33.88855,11.041748 C33.460693,11.391357 33.400513,12.017334 33.75293,12.440186 C34.589478,13.4436035 35.771362,14.064209 37.08081,14.188477 ZM16.499146,23.158447 C16.708008,22.649658 16.45996,22.070312 15.945801,21.864258 C15.433716,21.659424 14.846313,21.901367 14.637451,22.411133 C14.033813,23.883545 12.333862,24.596924 10.841553,23.99878 C9.353394,23.400879 8.633301,21.716797 9.236938,20.243896 C9.444702,19.735352 9.197754,19.156494 8.683594,18.949219 C8.168457,18.74414 7.583008,18.988037 7.375122,19.496826 C6.3549805,21.984863 7.570923,24.830078 10.085449,25.8396 C10.689941,26.081543 11.314575,26.1958 11.930176,26.1958 C13.876221,26.1958 15.7229,25.048584 16.499146,23.158447 ZM58.52014,20.31958 C59.114624,18.487793 58.626587,16.457764 57.202637,15.072754 C56.185425,14.085205 54.81775,13.5407715 53.402832,13.559082 C53.166748,12.938965 52.796265,12.376709 52.308228,11.903076 C51.019897,10.651611 49.17627,10.292236 47.547485,10.781738 C47.550415,10.693848 47.569458,10.609375 47.569458,10.522461 C47.569458,6.64917 44.334106,3.4987793 40.35852,3.4987793 C39.60437,3.4987793 38.86621,3.6115723 38.15332,3.8374023 C37.018555,2.6704102 35.42798,1.9919434 33.765015,1.9919434 C31.914307,1.9919434 30.186157,2.817627 29.049438,4.1987305 C28.107422,3.7387695 27.07312,3.4997559 26.00879,3.4997559 C22.24707,3.4997559 19.18628,6.4816895 19.18628,10.1467285 C19.18628,10.159668 19.18628,10.172852 19.18628,10.185547 C18.132935,10.676514 17.256348,11.422852 16.596558,12.319824 C14.70459,11.624023 12.544678,12.019287 11.049438,13.411621 C9.173584,12.829346 7.086914,13.296387 5.665039,14.678467 C4.6488037,15.6657715 4.095459,17.000732 4.0994873,18.375244 C3.4648438,18.60376 2.8884277,18.962646 2.4024658,19.434326 C1.5006104,20.309326 1.00354,21.47583 1.00354,22.718506 C1.00354,23.960938 1.5006104,25.127197 2.4024658,26.004395 C2.9226074,26.508545 3.5401611,26.882324 4.222046,27.105713 C4.2301025,28.539795 4.814453,29.93164 5.8708496,30.957764 C6.920288,31.978027 8.312012,32.536133 9.75708,32.553467 C9.834473,33.509766 10.2561035,34.42798 10.969116,35.11963 C11.781494,35.908203 12.8479,36.303955 13.916382,36.303955 C14.320068,36.303955 14.71875,36.229248 15.108276,36.11621 C19.237549,36.230225 24.85791,45.213867 25.597046,55.698486 C25.688354,56.9917 26.79004,58.004883 28.103516,58.004883 C28.103516,58.004883 33.12439,58.004883 33.12439,58.004883 C34.40576,58.004883 35.483154,57.053467 35.627808,55.79126 C35.627808,55.79126 35.7041,55.093506 35.7041,55.093506 C37.079834,42.486084 39.94568,36.01416 44.221558,35.820312 C45.061035,36.268555 45.983887,36.516357 46.91577,36.516357 C48.351807,36.516357 49.78772,35.98535 50.881348,34.92334 C51.25891,34.55664 51.57617,34.145508 51.8313,33.694336 C53.070435,33.6875 54.277466,33.20874 55.16516,32.34619 C56.14624,31.393799 56.639282,30.085938 56.55298,28.767578 C57.252808,28.51123 57.889526,28.111572 58.427734,27.589844 C59.438965,26.607422 59.99536,25.299805 59.99536,23.906982 C59.994263,22.559326 59.473022,21.290771 58.52014,20.31958 ZM20.560059,11.774902 C21.011963,11.624023 21.29309,11.178711 21.234863,10.7109375 C21.211792,10.524902 21.195679,10.337891 21.195679,10.144775 C21.195679,7.5751953 23.354614,5.484131 26.009766,5.484131 C27.004883,5.484131 27.961914,5.779297 28.780273,6.3374023 C29.012207,6.496582 29.303467,6.5495605 29.577515,6.487549 C29.852661,6.4248047 30.088745,6.25 30.226318,6.005615 C30.93628,4.7541504 32.293945,3.97583 33.76599,3.97583 C35.05542,3.97583 36.278442,4.583252 37.03772,5.600586 C37.315796,5.973633 37.81787,6.105713 38.246704,5.9211426 C38.919434,5.6308594 39.630493,5.484131 40.359497,5.484131 C43.227417,5.484131 45.562256,7.7441406 45.562256,10.521484 C45.562256,11.201904 45.412598,11.864258 45.132324,12.494629 C45.131348,12.498047 45.129272,12.499023 45.128418,12.501953 C45.128418,12.501953 45.052002,12.682617 45.052002,12.682617 C45.049927,12.686035 45.049072,12.689453 45.047974,12.692383 C45.047974,12.692383 45.047974,12.692383 45.047974,12.693359 C45.047974,12.693359 45.04602,12.697754 45.04602,12.697754 C45.027954,12.735596 45.027954,12.774902 45.014893,12.813721 C44.986816,12.897217 44.953613,12.980225 44.94751,13.065186 C44.946655,13.086182 44.95459,13.10498 44.95459,13.125977 C44.95459,13.229004 44.96057,13.333252 44.992798,13.430908 C45.00293,13.462402 45.026855,13.487305 45.039917,13.517822 C45.07617,13.60083 45.11133,13.684326 45.16858,13.755371 C45.247925,13.853027 45.346313,13.936035 45.463745,14.0 C46.010986,14.298828 46.337402,14.830566 46.337402,15.422119 C46.337402,16.017334 45.990967,16.56665 45.43567,16.858887 C45.186523,16.988281 45.004883,17.216309 44.933594,17.485352 C44.86328,17.754883 44.909424,18.040527 45.061035,18.27417 C45.388428,18.776855 45.562256,19.354736 45.562256,19.945068 C45.562256,21.21167 44.78296,22.350586 43.575928,22.847656 C43.07483,23.05371 42.83081,23.616943 43.024536,24.119629 C43.164185,24.480469 43.234497,24.85205 43.234497,25.222412 C43.234497,26.960938 41.771362,28.375244 39.9718,28.375244 C39.78711,28.375244 39.60437,28.355225 39.42163,28.32373 C39.383423,28.317871 39.34619,28.308594 39.309204,28.301758 C39.13037,28.264893 38.95166,28.217285 38.776855,28.149902 C38.776855,28.149902 38.77588,28.149902 38.77588,28.149902 C38.10608,27.891113 37.528687,27.424805 37.15515,26.80371 C36.97632,26.508545 36.657104,26.325928 36.309692,26.319092 C35.936157,26.319092 35.635742,26.48462 35.449097,26.773682 C34.90576,27.606445 34.1416,28.240723 33.259888,28.64331 C33.13037,28.70337 32.999878,28.759766 32.86731,28.80835 C32.802002,28.832275 32.733765,28.851074 32.66748,28.87207 C32.541992,28.911865 32.41638,28.952148 32.287964,28.983154 C32.20056,29.003662 32.111084,29.016113 32.02173,29.032715 C31.909302,29.053223 31.797852,29.07837 31.684326,29.091553 C31.488525,29.114258 31.289673,29.126465 31.088867,29.12793 C30.939209,29.128906 30.788696,29.118164 30.639038,29.106445 C30.59082,29.10254 30.541626,29.10254 30.493408,29.097412 C30.329712,29.079346 30.166138,29.050781 30.003418,29.018066 C29.972168,29.012207 29.939087,29.008057 29.907959,29.00122 C29.731201,28.961426 29.556519,28.911865 29.38379,28.854004 C29.368774,28.849121 29.353638,28.844727 29.338623,28.839844 C29.151855,28.77539 28.967041,28.702393 28.786255,28.615479 C28.786255,28.615479 28.786255,28.615479 28.786255,28.615479 C28.009033,28.249023 27.323242,27.700684 26.809082,26.998047 C26.65039,26.782227 26.4104,26.636719 26.142212,26.5979 C26.09314,26.591064 26.044922,26.587158 25.995605,26.587158 C25.776855,26.587158 25.56189,26.657959 25.38623,26.791992 C25.127075,26.987305 24.844849,27.137695 24.55371,27.265625 C24.54663,27.268555 24.53955,27.267578 24.532593,27.270752 C24.269531,27.38501 24.004395,27.469482 23.738281,27.527832 C23.729248,27.529785 23.720215,27.532715 23.711182,27.534668 C23.443115,27.592285 23.17395,27.62207 22.905884,27.62207 C20.678589,27.62207 18.868042,25.869873 18.868042,23.715576 C18.868042,22.891357 19.135132,22.099365 19.640137,21.425293 C19.803955,21.207275 19.87024,20.93335 19.823975,20.66626 C19.778809,20.398682 19.624146,20.162354 19.397217,20.010254 C18.09375,19.137451 17.316528,17.704102 17.316528,16.175781 C17.316528,15.949463 17.337646,15.727051 17.370728,15.507568 C17.378784,15.451172 17.391846,15.395752 17.401855,15.339844 C17.434082,15.172852 17.474243,15.0078125 17.524414,14.846436 C17.54248,14.789307 17.558472,14.73291 17.578613,14.676514 C17.64087,14.501709 17.713135,14.331787 17.795532,14.1657715 C17.811646,14.133057 17.823608,14.099121 17.841797,14.066162 C18.39502,13.01416 19.353027,12.178467 20.560059,11.774902 ZM34.890625,30.025879 C35.402954,29.710205 35.879883,29.338623 36.300537,28.900635 C36.72339,29.301758 37.22046,29.613525 37.751587,29.856934 C37.78076,29.892822 37.808838,29.927734 37.848022,29.966553 C38.01367,30.126953 38.192505,30.273438 38.382324,30.403564 C37.140137,31.835205 36.02942,33.515625 35.111694,35.144775 C35.17285,33.234375 35.05847,31.495361 34.890625,30.025879 ZM28.373535,40.479004 C26.702637,36.678467 24.582764,33.922607 22.922974,32.135986 C23.242188,31.99414 23.540405,31.802246 23.797485,31.552734 C24.352905,31.012207 24.661133,30.287598 24.680176,29.537354 C24.90918,29.414307 25.139038,29.25122 25.36914,29.084229 C25.511719,29.021973 25.65625,28.96289 25.793823,28.889893 C26.290894,29.40625 26.864258,29.842285 27.486938,30.188965 C28.288208,33.281982 28.42981,37.31128 28.373535,40.479004 ZM12.375,33.703125 C11.832764,33.176025 11.624878,32.4292 11.819702,31.705078 C11.909058,31.370117 11.81665,31.012207 11.574707,30.762451 C11.3828125,30.564453 11.119751,30.456055 10.848633,30.456055 C10.777344,30.456055 10.7039795,30.464355 10.63269,30.479004 C9.40564,30.745117 8.154419,30.394531 7.275757,29.54126 C6.458252,28.74707 6.084717,27.609375 6.2785645,26.49878 C6.3258057,26.230713 6.258545,25.956299 6.0947266,25.737793 C5.9311523,25.520264 5.684082,25.37793 5.4110107,25.344482 C4.79541,25.270508 4.241089,25.007812 3.8083496,24.586914 C3.295166,24.085693 3.011963,23.422363 3.011963,22.718506 C3.011963,22.013916 3.295166,21.350586 3.8103027,20.85083 C4.2209473,20.45166 4.746216,20.19336 5.3286133,20.10498 C5.5976562,20.064209 5.8377686,19.916992 5.9953613,19.69751 C6.1520996,19.478027 6.213257,19.205078 6.1621094,18.940918 C5.9663086,17.903564 6.3066406,16.8396 7.072876,16.094727 C8.07605,15.119385 9.610474,14.871826 10.890747,15.479248 C11.307617,15.676514 11.815674,15.564697 12.108887,15.203857 C12.191284,15.1015625 12.277588,15.001465 12.375977,14.905762 C13.247559,14.057861 14.503784,13.76709 15.653687,14.094238 C15.643555,14.123047 15.640625,14.154053 15.63147,14.182617 C15.555176,14.417236 15.5,14.658203 15.450806,14.901855 C15.432617,14.989258 15.406494,15.074707 15.392578,15.163086 C15.340332,15.494873 15.309204,15.832275 15.309204,16.175293 C15.309204,18.044434 16.11853,19.811523 17.510376,21.0625 C17.083618,21.881836 16.861694,22.782715 16.861694,23.713623 C16.861694,23.914307 16.87268,24.111816 16.8927,24.307617 C16.89978,24.375977 16.913818,24.442627 16.92395,24.510986 C16.94104,24.636719 16.957031,24.762695 16.983154,24.885986 C16.999146,24.964111 17.023315,25.039307 17.042358,25.11621 C17.06958,25.22583 17.094604,25.33667 17.128784,25.442871 C17.154907,25.524658 17.187012,25.601807 17.216187,25.681396 C17.25232,25.780518 17.286377,25.880615 17.327637,25.97705 C17.36267,26.058838 17.40393,26.13501 17.442017,26.2146 C17.486206,26.305908 17.528442,26.398682 17.577637,26.48706 C17.620728,26.565186 17.670044,26.638672 17.716309,26.715332 C17.768433,26.800781 17.818726,26.88623 17.873901,26.96875 C17.925049,27.043213 17.980347,27.113525 18.034546,27.185303 C18.09375,27.263672 18.151001,27.342773 18.214233,27.419922 C18.272583,27.48999 18.335693,27.555908 18.398071,27.623047 C18.463379,27.694824 18.527588,27.76709 18.596924,27.835693 C18.66211,27.900635 18.732422,27.960938 18.800781,28.023682 C18.871948,28.088135 18.94336,28.154785 19.017578,28.215332 C19.08899,28.27417 19.164185,28.328613 19.238525,28.384033 C19.315796,28.44165 19.39209,28.5 19.472534,28.554932 C19.549927,28.607422 19.630127,28.655273 19.71045,28.703857 C19.792847,28.754395 19.875122,28.804932 19.960571,28.85205 C20.042969,28.896729 20.127197,28.9375 20.21167,28.979248 C20.299927,29.021973 20.388306,29.065674 20.478638,29.104492 C20.565063,29.141113 20.653442,29.173584 20.741821,29.206543 C20.835205,29.241455 20.928589,29.2771 21.023926,29.307129 C21.11438,29.335693 21.206665,29.360596 21.299072,29.385742 C21.396606,29.411133 21.49292,29.437256 21.591309,29.458984 C21.685669,29.47998 21.781128,29.495605 21.877563,29.511475 C21.977905,29.528076 22.07837,29.544678 22.180786,29.557129 C22.278198,29.569336 22.376587,29.576172 22.474976,29.583008 C22.539307,29.586914 22.601562,29.596924 22.665771,29.600342 C22.637695,29.79956 22.543213,29.985107 22.3927,30.133545 C22.129517,30.388672 21.738892,30.479004 21.372437,30.371582 C21.105347,30.294434 20.819092,30.329346 20.581177,30.467285 C20.342041,30.605225 20.171387,30.83545 20.109253,31.10254 C20.064941,31.294678 19.993774,31.476318 19.898193,31.64502 C19.800903,31.817871 19.680298,31.976074 19.535767,32.11499 C18.917236,32.717285 17.99231,32.898438 17.174927,32.57788 C16.679932,32.38257 16.115479,32.606934 15.892578,33.085693 C15.785156,33.316895 15.637573,33.524902 15.456787,33.700195 C15.2438965,33.906982 14.982788,34.067627 14.682617,34.177002 C14.678589,34.178467 14.676514,34.181885 14.672485,34.18335 C13.896362,34.46216 12.994507,34.3042 12.375,33.703125 ZM33.70569,54.88086 C33.70569,54.88086 33.630493,55.567383 33.630493,55.567383 C33.60034,55.824463 33.382446,56.018066 33.122437,56.018066 C33.122437,56.018066 28.10144,56.018066 28.10144,56.018066 C27.83728,56.018066 27.617432,55.81665 27.599365,55.56006 C26.928589,46.042236 22.280273,36.97461 17.36267,34.67578 C17.440063,34.687744 17.517456,34.689697 17.594604,34.69702 C17.66504,34.703857 17.735352,34.712646 17.804565,34.715576 C17.901001,34.719482 17.996338,34.716553 18.091797,34.7146 C18.160034,34.712646 18.228394,34.7146 18.295654,34.709717 C18.390991,34.70288 18.485352,34.687744 18.579834,34.674805 C18.647095,34.665527 18.714355,34.659668 18.781616,34.64746 C18.875,34.62915 18.96643,34.604248 19.058838,34.580566 C19.125122,34.563477 19.191406,34.550537 19.256592,34.52954 C19.348999,34.500977 19.438354,34.464355 19.528687,34.429443 C19.590088,34.405273 19.653198,34.385742 19.713501,34.35913 C19.81189,34.31494 19.905273,34.263916 20.000732,34.21338 C20.049927,34.18579 20.101074,34.164307 20.149414,34.13623 C20.266846,34.067627 20.378296,33.989502 20.489746,33.908936 C20.51184,33.891846 20.536987,33.879395 20.559082,33.862305 C20.69165,33.76123 20.819092,33.652588 20.940674,33.534912 C21.039062,33.43921 21.13147,33.339355 21.21875,33.23584 C23.182983,35.310547 26.525879,39.58496 28.132568,45.93701 C28.25,46.406006 28.694946,46.71875 29.179932,46.686768 C29.666992,46.65088 30.057617,46.274902 30.105835,45.7937 C30.14392,45.41382 30.944336,37.18799 29.73523,30.995605 C29.806519,31.0083 29.879883,31.011719 29.951172,31.022705 C30.111816,31.04712 30.27246,31.069824 30.436157,31.083984 C30.545654,31.092773 30.655151,31.096191 30.764526,31.101074 C30.860962,31.104492 30.955322,31.115967 31.051758,31.115967 C31.10791,31.115967 31.162231,31.108398 31.217407,31.10791 C31.330933,31.104492 31.444336,31.098633 31.557861,31.091309 C31.708496,31.081055 31.85913,31.067383 32.00769,31.04712 C32.114136,31.033447 32.218628,31.017578 32.324097,30.999512 C32.486816,30.970947 32.648438,30.937256 32.808105,30.89746 C32.86035,30.884033 32.91443,30.878174 32.966797,30.863525 C33.24182,33.75049 33.24878,37.61133 32.15625,41.455566 C32.009766,41.968994 32.301025,42.505127 32.814087,42.66919 C33.32727,42.834717 33.879517,42.56665 34.065308,42.066895 C34.089355,42.00244 36.27954,36.162598 39.454712,32.213623 C39.464844,32.229492 39.480835,32.242188 39.49182,32.259277 C39.603394,32.426758 39.72986,32.585693 39.87744,32.730713 C39.88159,32.73462 39.883545,32.73999 39.887573,32.743896 C40.02112,32.873047 40.166748,32.987305 40.319336,33.088623 C40.32434,33.091553 40.32837,33.096436 40.333374,33.10034 C40.410767,33.151367 40.494995,33.184814 40.576416,33.228516 C40.66284,33.27417 40.745117,33.327637 40.83545,33.364502 C40.881714,33.383545 40.93091,33.3916 40.97705,33.408203 C41.108643,33.455322 41.239258,33.501953 41.37671,33.530518 C41.5625,33.56909 41.751343,33.59131 41.942017,33.595215 C42.050537,33.798584 42.17212,33.994385 42.305542,34.18091 C35.702026,36.57495 34.2229,50.137695 33.70569,54.88086 ZM57.019775,26.171875 C56.53589,26.642578 55.91931,26.951904 55.24048,27.066895 C54.958252,27.114502 54.710205,27.279541 54.557617,27.520996 C54.404907,27.762207 54.365845,28.055176 54.447144,28.327637 C54.721313,29.252197 54.457275,30.24878 53.757324,30.92871 C53.13672,31.530273 52.240967,31.805176 51.372314,31.674072 C50.912354,31.601318 50.45459,31.85913 50.28186,32.293213 C50.100098,32.752686 49.82898,33.159668 49.472412,33.504883 C48.24829,34.69458 46.35742,34.84961 44.956665,33.972412 C44.95569,33.97119 44.95459,33.970703 44.953613,33.969727 C44.723633,33.824463 44.527832,33.672363 44.354126,33.503418 C43.973633,33.134277 43.690308,32.69336 43.509644,32.192627 C43.467407,32.07715 43.4032,31.979004 43.32788,31.889648 C43.306763,31.86499 43.28064,31.845947 43.25757,31.822754 C43.198364,31.766357 43.137085,31.716797 43.066772,31.676025 C43.032593,31.656006 42.998413,31.640137 42.96228,31.625488 C42.893066,31.595459 42.822754,31.574951 42.747437,31.560791 C42.707275,31.552734 42.66919,31.544922 42.62683,31.541992 C42.605835,31.541016 42.584717,31.531738 42.56372,31.531738 C42.47632,31.531738 42.38794,31.542969 42.300537,31.56665 C42.29956,31.56665 42.297607,31.56665 42.295532,31.56665 C42.253296,31.57837 42.210205,31.57837 42.16797,31.584717 C41.89795,31.624512 41.631836,31.562744 41.41687,31.411865 C41.375732,31.38208 41.331543,31.356934 41.294434,31.321533 C41.22412,31.253906 41.168823,31.175781 41.123657,31.091797 C41.11267,31.07129 41.10669,31.04712 41.096558,31.025146 C41.06848,30.961182 41.04431,30.893555 41.03125,30.822754 C41.00415,30.677002 41.007202,30.523682 41.05432,30.370605 C41.067383,30.329346 41.077393,30.286133 41.084473,30.243896 C41.395752,30.178223 41.696045,30.082275 41.984253,29.965576 C42.06665,29.93164 42.14087,29.88501 42.221313,29.848145 C42.431152,29.750977 42.636963,29.64746 42.83081,29.525635 C42.930176,29.46289 43.019653,29.390625 43.11389,29.321777 C43.275635,29.203613 43.43225,29.082275 43.57898,28.948242 C43.670288,28.86377 43.75464,28.77539 43.83899,28.685059 C43.971558,28.545166 44.095093,28.399902 44.21057,28.246094 C44.285767,28.146484 44.357178,28.046387 44.424316,27.941895 C44.529907,27.777832 44.622314,27.607422 44.70862,27.43164 C44.76184,27.323242 44.817993,27.218018 44.86328,27.105713 C44.943604,26.907715 45.00293,26.703613 45.058105,26.494873 C45.085205,26.393799 45.121338,26.297607 45.14148,26.192871 C45.203613,25.876709 45.242798,25.553223 45.242798,25.219482 C45.242798,24.89917 45.21167,24.582031 45.149414,24.267822 C46.64258,23.333008 47.569458,21.71582 47.569458,19.943115 C47.569458,19.286133 47.43994,18.64038 47.19104,18.035645 C47.736206,17.529541 48.112793,16.873535 48.267334,16.155273 C48.318604,15.915527 48.345825,15.669678 48.345825,15.419189 C48.345825,15.180176 48.317627,14.94458 48.270508,14.714844 C48.25537,14.640137 48.227295,14.572266 48.207153,14.498779 C48.164917,14.345459 48.12085,14.193848 48.05957,14.047607 C48.024414,13.965088 47.979248,13.888916 47.93811,13.809326 C47.871826,13.680664 47.804443,13.555176 47.723145,13.435791 C47.668945,13.356201 47.607666,13.282715 47.547485,13.207031 C47.49414,13.140625 47.45105,13.068115 47.392822,13.005615 C48.465332,12.286377 49.951416,12.393066 50.901367,13.317383 C51.31006,13.714111 51.573242,14.218262 51.663574,14.775635 C51.70581,15.040283 51.85327,15.275391 52.07422,15.430176 C52.29419,15.5842285 52.570312,15.644043 52.833374,15.596924 C53.915894,15.404541 55.02356,15.736816 55.795776,16.488037 C56.78882,17.45337 57.041992,18.926758 56.42737,20.153564 C56.2135,20.578857 56.334106,21.092773 56.7146,21.38208 C56.82007,21.462646 56.923462,21.546875 57.020874,21.641357 C57.643433,22.247559 57.986816,23.05127 57.986816,23.90503 C57.985962,24.762695 57.642456,25.565918 57.019775,26.171875 Z"/>
</svg>