<svg xmlns="http://www.w3.org/2000/svg"
 xmlns:xlink="http://www.w3.org/1999/xlink"
 width="57px" height="56px"  viewBox="0 0 57 56">
<path fill-rule="evenodd"  fill="#ff6262"
 d="M52.16626,16.535645 C50.333313,11.992676 46.914673,6.084961 41.030212,3.7282715 C36.71341,1.9997559 31.711212,2.4140625 26.163483,4.958252 C19.226929,8.140137 16.957764,13.843262 19.777313,21.018066 C20.65155,23.243164 20.319763,25.672852 18.888092,27.518555 C17.454529,29.366943 15.185364,30.277588 12.822815,29.971924 C9.05542,29.474854 6.1643677,30.324951 4.4575806,32.43213 C3.151123,34.046387 1.9947205,37.12964 3.901184,42.64795 C3.901184,42.64795 3.9369507,42.737793 3.9369507,42.737793 C4.073059,43.036865 7.3774414,50.085205 15.857971,52.90625 C17.690002,53.516357 19.587524,53.685303 21.422485,53.8479 C21.422485,53.8479 21.712585,53.87378 21.712585,53.87378 C22.324646,53.928955 23.381714,54.0 24.753754,54.0 C28.178314,54.0 33.56906,53.559082 38.922974,51.329834 C46.7229,48.083008 51.67151,42.30078 53.630737,34.143555 C55.00766,28.412598 54.500977,22.32251 52.16626,16.535645 ZM51.69934,33.673584 C49.898163,41.175537 45.343964,46.49414 38.162903,49.483154 C31.083313,52.429443 23.91919,52.06372 21.889496,51.88257 C21.889496,51.88257 21.598328,51.856934 21.598328,51.856934 C19.79715,51.696533 18.096252,51.544678 16.48285,51.008057 C9.153839,48.57007 6.0242615,42.47754 5.76001,41.9375 C4.5261536,38.335938 4.6105347,35.411133 5.998535,33.694824 C7.247345,32.153076 9.517487,31.55371 12.5624695,31.954346 C15.639404,32.362793 18.584076,31.162354 20.454895,28.749268 C22.323608,26.338623 22.759735,23.173828 21.624176,20.283203 C19.184204,14.0720215 20.988373,9.528564 26.987091,6.777832 C32.02411,4.4682617 36.5018,4.067627 40.295044,5.5856934 C45.52774,7.6811523 48.636444,13.105225 50.32434,17.287354 C52.503113,22.685547 52.977936,28.350098 51.69934,33.673584 ZM36.137207,21.216064 C38.87625,21.216064 41.104706,18.973877 41.104706,16.21753 C41.104706,13.461182 38.87625,11.219482 36.137207,11.219482 C33.398163,11.219482 31.169708,13.461182 31.169708,16.21753 C31.169708,18.973877 33.398163,21.216064 36.137207,21.216064 ZM36.137207,13.218262 C37.780487,13.218262 39.117737,14.563965 39.117737,16.21753 C39.117737,17.870605 37.780487,19.216309 36.137207,19.216309 C34.493927,19.216309 33.156677,17.870605 33.156677,16.21753 C33.156677,14.563965 34.493927,13.218262 36.137207,13.218262 ZM50.36908,26.67163 C50.24292,23.813232 49.62787,20.9292 48.4953,18.12085 C44.18155,7.4345703 37.09793,4.1835938 27.480896,8.588867 C25.555511,9.472656 19.697754,12.159668 22.866058,20.223145 C24.019531,23.160156 23.68573,26.317139 21.95111,28.881348 C19.986908,31.786865 16.588226,33.30786 13.073151,32.841064 C10.455322,32.489014 8.49115,33.011963 7.5850525,34.29663 C6.62442,35.657227 6.633301,38.013428 7.610901,40.9292 C7.610901,40.9292 7.668579,41.066162 7.668579,41.066162 C8.164307,42.039795 10.959045,47.001953 17.293549,49.110596 C18.733124,49.589355 20.305817,49.729248 21.968933,49.876953 C21.968933,49.876953 22.250092,49.902588 22.250092,49.902588 C23.09256,49.978027 23.996643,50.016357 24.938477,50.016357 C43.705658,50.016357 48.553955,38.26709 49.76703,33.215088 C50.265686,31.138428 50.455475,29.00415 50.376984,26.854736 C50.382996,26.791748 50.376038,26.73291 50.36908,26.67163 ZM28.30545,10.408447 C30.821991,9.25415 33.1398,8.668945 35.194397,8.668945 C40.06549,8.668945 43.921295,12.102783 46.654327,18.872559 C47.47104,20.896973 47.989655,22.962402 48.240967,25.023438 C43.791107,23.759766 35.909668,27.687988 34.59436,28.369385 C28.652191,30.270752 25.900177,27.544922 25.145142,26.580322 C25.756165,24.283447 25.632965,21.82959 24.712952,19.488281 C22.534271,13.939453 25.306122,11.78418 28.30545,10.408447 ZM23.595337,30.006104 C23.894318,29.56372 24.14972,29.104248 24.380219,28.636475 C25.541595,29.707275 27.60907,31.019531 30.791199,31.019531 C32.09668,31.019531 33.589844,30.797607 35.282806,30.247803 C35.33545,30.230469 35.386078,30.20996 35.43579,30.18335 C39.349182,28.132568 46.130768,25.641602 48.40793,27.25879 C48.44867,29.115479 48.26584,30.95581 47.83661,32.746338 C47.82666,32.786133 47.81476,32.830322 47.80484,32.87085 C45.641052,32.2583 40.39337,31.643555 31.733032,35.823242 C28.771393,37.25244 26.214111,37.53125 24.134735,36.654297 C22.123901,35.806885 20.998291,34.046387 20.499512,33.05713 C21.696777,32.263184 22.757812,31.244385 23.595337,30.006104 ZM22.427948,47.910156 C22.427948,47.910156 22.145752,47.88501 22.145752,47.88501 C20.598877,47.74756 19.138428,47.61792 17.91745,47.211914 C12.386719,45.37036 9.868164,40.97534 9.469788,40.217285 C8.618347,37.638184 8.773315,36.067627 9.205536,35.453857 C9.637634,34.84131 11.032501,34.58545 12.813843,34.82251 C14.800842,35.08618 16.751099,34.80542 18.518555,34.093506 C18.578156,34.418457 18.640717,34.786133 18.698303,35.18335 C19.205017,38.659912 21.134369,41.79077 23.990723,43.775146 C26.035309,45.19409 27.417297,46.473633 27.479858,47.929688 C26.662262,47.98291 25.821686,48.01709 24.938477,48.01709 C24.056244,48.015625 23.210815,47.97998 22.427948,47.910156 ZM29.466827,47.750977 C29.306885,45.041992 26.648346,43.19043 25.119324,42.12915 C23.37381,40.91748 22.040466,39.195557 21.277435,37.22339 C21.861664,37.708496 22.546204,38.149414 23.34195,38.488037 C25.973694,39.6084 29.085358,39.318848 32.593445,37.62549 C40.729156,33.69873 45.485016,34.311523 47.223663,34.788086 C45.57248,39.363037 41.15735,46.31299 29.466827,47.750977 Z"/>
</svg>