<svg xmlns="http://www.w3.org/2000/svg"
 xmlns:xlink="http://www.w3.org/1999/xlink"
 width="62px" height="57px"  viewBox="0 0 62 57">
<path fill-rule="evenodd"  fill="#ffc243"
 d="M38.751587,20.219727 C39.30548,20.219727 39.754456,20.666016 39.754456,21.217041 C39.754456,21.767334 39.30548,22.213135 38.751587,22.213135 C38.197693,22.213135 37.748657,21.767334 37.748657,21.217041 C37.748657,20.666016 38.197693,20.219727 38.751587,20.219727 ZM43.984497,17.58081 C44.53833,17.58081 44.987366,18.0271 44.987366,18.577637 C44.987366,19.128418 44.53833,19.574219 43.984497,19.574219 C43.430542,19.574219 42.981567,19.128418 42.981567,18.577637 C42.981567,18.0271 43.430542,17.58081 43.984497,17.58081 ZM42.668762,20.088623 C43.222595,20.088623 43.67157,20.534424 43.67157,21.08545 C43.67157,21.635742 43.222595,22.081543 42.668762,22.081543 C42.11487,22.081543 41.665894,21.635742 41.665894,21.08545 C41.665894,20.534424 42.11487,20.088623 42.668762,20.088623 ZM16.43988,15.46875 C16.993774,15.46875 17.442749,15.915039 17.442749,16.465332 C17.442749,17.016357 16.993774,17.462646 16.43988,17.462646 C15.885986,17.462646 15.437012,17.016357 15.437012,16.465332 C15.437012,15.915039 15.885986,15.46875 16.43988,15.46875 ZM22.288574,14.149658 C22.842468,14.149658 23.291443,14.595459 23.291443,15.14624 C23.291443,15.696533 22.842468,16.142334 22.288574,16.142334 C21.73468,16.142334 21.285706,15.696533 21.285706,15.14624 C21.285706,14.595459 21.73468,14.149658 22.288574,14.149658 ZM19.056274,13.152344 C19.610168,13.152344 20.059143,13.598633 20.059143,14.149658 C20.059143,14.699951 19.610168,15.14624 19.056274,15.14624 C18.502502,15.14624 18.053467,14.699951 18.053467,14.149658 C18.053467,13.598633 18.502502,13.152344 19.056274,13.152344 ZM14.183411,31.479492 C14.737305,31.479492 15.186279,31.925781 15.186279,32.47632 C15.186279,33.02661 14.737305,33.4729 14.183411,33.4729 C13.629517,33.4729 13.180481,33.02661 13.180481,32.47632 C13.180481,31.925781 13.629517,31.479492 14.183411,31.479492 ZM17.442749,29.16333 C17.996582,29.16333 18.445557,29.60962 18.445557,30.1604 C18.445557,30.710205 17.996582,31.156494 17.442749,31.156494 C16.888855,31.156494 16.43988,30.710205 16.43988,30.1604 C16.43988,29.60962 16.888855,29.16333 17.442749,29.16333 ZM19.056274,31.156494 C19.610168,31.156494 20.059143,31.602783 20.059143,32.153564 C20.059143,32.7041 19.610168,33.149902 19.056274,33.149902 C18.502502,33.149902 18.053467,32.7041 18.053467,32.153564 C18.053467,31.602783 18.502502,31.156494 19.056274,31.156494 ZM28.401978,11.210205 C28.590515,11.16748 28.78003,11.201416 28.933472,11.297119 C29.012756,11.345703 29.15216,11.457031 29.193237,11.654053 C29.483093,13.048828 30.899109,13.94043 32.355286,13.647705 C32.54486,13.605957 32.7334,13.638916 32.88684,13.734619 C32.966003,13.783203 33.105408,13.895264 33.146545,14.091553 C33.28894,14.778076 33.703125,15.363281 34.312866,15.73877 C34.74414,16.005371 35.23651,16.141846 35.73993,16.141846 C35.928467,16.141846 36.11902,16.122803 36.307556,16.083984 C36.850098,15.972412 37.199097,15.443848 37.085754,14.905029 C36.97345,14.366455 36.44397,14.022949 35.90039,14.131348 C35.7099,14.171143 35.523376,14.13916 35.368896,14.044434 C35.28961,13.99585 35.15027,13.884033 35.11017,13.6875 C34.966736,13.001221 34.55255,12.415039 33.94287,12.040283 C33.35016,11.673584 32.641113,11.550781 31.94812,11.694336 C31.577087,11.772705 31.222046,11.570557 31.155823,11.25 C31.012512,10.563477 30.598328,9.977295 29.988525,9.602295 C29.395813,9.237061 28.684753,9.113281 27.992859,9.256592 C27.450317,9.368164 27.101257,9.89624 27.2146,10.435303 C27.328003,10.973877 27.85437,11.31958 28.401978,11.210205 ZM32.369263,25.317871 C31.815796,25.329834 31.376526,25.786377 31.387451,26.335693 C31.390503,26.45166 31.323303,26.527344 31.275208,26.52832 C30.105835,26.55371 29.176208,27.552246 29.202332,28.755615 C29.205261,28.871582 29.138123,28.946777 29.089966,28.947754 C28.510315,28.960938 27.97583,29.208008 27.581665,29.642334 C27.20459,30.06128 27.004028,30.605713 27.01709,31.176758 C27.029114,31.71875 27.475342,32.151123 28.01892,32.151123 C28.026917,32.151123 28.033997,32.151123 28.041992,32.151123 C28.595581,32.138428 29.03479,31.682861 29.02179,31.132568 C29.020752,31.058838 29.059814,30.94336 29.134155,30.942383 C30.303467,30.916504 31.23413,29.916748 31.208008,28.713867 C31.205017,28.598145 31.272156,28.523438 31.319275,28.52246 C32.48871,28.496582 33.41931,27.496826 33.39325,26.293457 C33.381226,25.743652 32.94995,25.3479 32.369263,25.317871 ZM25.184753,21.68042 C25.03241,22.02417 24.662354,22.195557 24.36145,22.063965 C23.715637,21.781982 22.995544,21.776611 22.334717,22.052979 C21.691833,22.321045 21.18042,22.823486 20.894592,23.469482 C20.671875,23.972656 20.90155,24.561523 21.408997,24.781738 C21.540405,24.839844 21.677856,24.86621 21.812195,24.86621 C22.197327,24.86621 22.565308,24.644287 22.730774,24.270752 C22.809082,24.095459 22.943481,23.959473 23.109863,23.889893 C23.196167,23.854492 23.368591,23.807373 23.553162,23.886719 C24.866943,24.464111 26.422363,23.831787 27.021057,22.482666 C27.099304,22.307373 27.233643,22.171875 27.400146,22.101562 C27.48639,22.065918 27.658875,22.019287 27.843445,22.098633 C28.489258,22.381104 29.20929,22.385986 29.870178,22.110107 C30.513062,21.841553 31.024536,21.339111 31.310303,20.693115 C31.532898,20.19043 31.303284,19.601318 30.795837,19.38086 C30.288391,19.15747 29.697632,19.387207 29.473999,19.891846 C29.395813,20.067627 29.261475,20.203125 29.09497,20.27295 C29.009766,20.308594 28.83728,20.354248 28.651672,20.275879 C28.003845,19.993408 27.28479,19.988525 26.623962,20.264893 C25.980042,20.532959 25.469666,21.0354 25.184753,21.68042 ZM59.817627,18.247559 C59.81067,18.229004 59.795654,18.216797 59.787598,18.19751 C59.510864,17.095703 59.15674,16.060791 58.725586,15.097168 C58.711487,15.050537 58.68347,15.008301 58.662354,14.9626465 C56.365845,9.953369 52.07361,6.7697754 46.893738,4.833496 C46.861694,4.817383 46.838623,4.79126 46.803528,4.7785645 C46.77948,4.770752 46.75537,4.774658 46.731323,4.7683105 C44.52002,3.9560547 42.152283,3.3659668 39.71631,2.9516602 C39.710266,2.9492188 39.707214,2.944336 39.701233,2.942871 C39.57086,2.8967285 39.436462,2.8798828 39.306152,2.888916 C34.300842,2.0791016 29.035828,1.9958496 24.24414,2.2436523 C24.23108,2.2436523 24.22107,2.2368164 24.208008,2.2368164 C24.18695,2.2368164 24.168945,2.2480469 24.146912,2.2485352 C19.848572,2.4748535 15.938416,2.9614258 12.96991,3.4250488 C10.400635,3.8276367 8.471069,5.8847656 8.213379,8.444092 C8.213379,8.445557 8.213379,8.44751 8.213379,8.44751 C8.208313,8.499023 8.193359,8.545654 8.18927,8.59668 C8.18927,8.59668 6.6830444,27.729004 6.6830444,27.729004 C4.8568115,28.88623 1.0037842,32.021973 2.466919,37.16089 C2.9834595,38.972656 3.8268433,40.038086 4.9750977,40.32422 C5.1846924,40.37671 5.5266724,40.55005 5.4765015,40.867188 C5.0894165,43.307373 4.4315796,47.809082 4.3824463,50.548096 C4.3583374,51.866943 4.7946777,52.9729 5.643982,53.744385 C6.847412,54.838623 8.540283,55.002197 9.436829,55.002197 C9.75177,55.002197 9.96936,54.981445 10.032532,54.975098 C10.386597,54.952637 13.5164795,54.685547 14.5494995,52.53662 C15.178284,51.229004 14.847351,49.634033 13.574646,47.80127 C13.574646,47.80127 30.01764,41.176025 30.01764,41.176025 C30.020569,41.178467 30.024658,41.178467 30.027649,41.18042 C30.223206,41.282715 30.43274,41.36377 30.649414,41.429443 C30.683472,41.440674 30.714539,41.45752 30.749634,41.467285 C31.000366,41.536377 31.263184,41.58203 31.53894,41.60083 C31.76764,41.61499 31.992188,41.61499 32.21289,41.604736 C32.262024,41.60327 32.31122,41.595947 32.361267,41.593506 C32.54889,41.58008 32.73236,41.559082 32.911804,41.528076 C32.95703,41.519775 33.002136,41.51245 33.04724,41.503174 C33.25885,41.462402 33.464478,41.409424 33.661987,41.34497 C33.67505,41.340576 33.689087,41.33667 33.70215,41.333252 C34.43524,41.085205 35.070007,40.68213 35.54541,40.129883 C35.725952,39.920654 35.875366,39.686035 36.01172,39.441162 C36.015747,39.43506 36.018738,39.428223 36.02179,39.4209 C36.154114,39.17993 36.264465,38.919678 36.35376,38.6438 C36.35669,38.634766 36.360718,38.628906 36.36377,38.61963 C36.36377,38.61963 55.196533,31.030273 55.196533,31.030273 C55.32184,30.988037 58.30237,29.959473 59.828735,26.846436 C60.998047,24.463135 60.99402,21.571533 59.817627,18.247559 ZM57.304504,20.286133 C56.955505,19.526123 56.57544,18.778809 56.1662,18.043457 C56.1662,18.043457 57.353638,17.033936 57.353638,17.033936 C57.63849,17.818115 57.877136,18.64331 58.05365,19.520264 C58.230164,20.396484 58.077698,21.274414 57.676575,22.016357 C57.689636,21.471191 57.58435,20.892822 57.304504,20.286133 ZM56.517273,15.123047 C56.517273,15.123047 55.115295,16.315186 55.115295,16.315186 C54.36615,15.187988 53.508728,14.108398 52.50879,13.099365 C52.50879,13.099365 53.730347,11.337891 53.730347,11.337891 C54.829468,12.437988 55.77112,13.692383 56.517273,15.123047 ZM46.38031,8.865723 C46.38031,8.865723 47.05121,7.025635 47.05121,7.025635 C48.949707,7.8146973 50.69464,8.794189 52.222046,9.998047 C52.222046,9.998047 51.017517,11.736572 51.017517,11.736572 C49.70587,10.660156 48.172424,9.695068 46.38031,8.865723 ZM39.449585,6.6904297 C39.449585,6.6904297 40.03723,5.0146484 40.03723,5.0146484 C41.81134,5.342041 43.53717,5.7702637 45.174866,6.321045 C45.174866,6.321045 44.53009,8.090576 44.53009,8.090576 C43.016663,7.5283203 41.325928,7.0595703 39.449585,6.6904297 ZM32.231934,5.8552246 C32.231934,5.8552246 32.231934,4.1677246 32.231934,4.1677246 C34.172485,4.2512207 36.11902,4.416748 38.028503,4.6867676 C38.028503,4.6867676 37.4458,6.349121 37.4458,6.349121 C35.839233,6.113037 34.108337,5.94458 32.231934,5.8552246 ZM28.999695,4.0976562 C29.40686,4.0976562 29.81604,4.100586 30.226196,4.107422 C30.226196,4.107422 30.226196,5.7888184 30.226196,5.7888184 C28.651672,5.7609863 26.977966,5.787842 25.211853,5.865967 C25.211853,5.865967 25.211853,4.1884766 25.211853,4.1884766 C26.452393,4.133789 27.716003,4.0976562 28.999695,4.0976562 ZM17.188965,6.525879 C17.188965,6.525879 17.188965,4.8566895 17.188965,4.8566895 C19.031311,4.6328125 21.059021,4.434326 23.206177,4.2963867 C23.206177,4.2963867 23.206177,5.9716797 23.206177,5.9716797 C21.312744,6.09375 19.304016,6.2802734 17.188965,6.525879 ZM13.282837,5.3952637 C13.875549,5.30249 14.517334,5.2089844 15.183228,5.116211 C15.183228,5.116211 15.183228,6.7668457 15.183228,6.7668457 C13.695007,6.961426 12.1345825,7.194092 10.535034,7.4504395 C11.040466,6.3771973 12.046265,5.588623 13.282837,5.3952637 ZM12.741333,51.67334 C12.29303,52.611084 10.491882,52.943115 9.858093,52.989258 C9.377747,53.0437 7.8182983,53.02002 6.996887,52.273438 C6.5737305,51.88745 6.373047,51.335693 6.3881226,50.583984 C6.4352417,47.965576 7.078125,43.567627 7.458191,41.178467 C7.6608276,39.90161 6.8223267,38.729736 5.4645386,38.39087 C5.085449,38.296143 4.687256,37.6333 4.3984985,36.61743 C3.224121,32.49292 6.624878,30.042969 8.141174,29.181396 C8.141174,29.181396 8.60144,28.918701 8.60144,28.918701 C8.60144,28.918701 10.127808,9.533447 10.127808,9.533447 C15.429932,8.662598 20.08728,8.129395 24.177979,7.8881836 C24.188965,7.8881836 24.197998,7.894287 24.209106,7.894287 C24.227112,7.894287 24.242188,7.8847656 24.260193,7.883789 C29.673645,7.569092 34.10028,7.760742 37.749756,8.334473 C37.768677,8.342529 37.780823,8.357178 37.800842,8.364502 C37.910156,8.402344 38.021423,8.419922 38.1308,8.419922 C38.16284,8.419922 38.192993,8.40918 38.225037,8.405273 C40.673035,8.81958 42.75299,9.413818 44.548096,10.140869 C44.624268,10.196777 44.699524,10.255127 44.793762,10.2890625 C44.860962,10.313232 44.9292,10.315186 44.997375,10.323975 C47.206665,11.271484 48.95569,12.432129 50.377686,13.726318 C50.447876,13.836426 50.540222,13.934082 50.65454,14.013184 C50.677612,14.028809 50.702637,14.033691 50.726746,14.047852 C52.95111,16.183594 54.347107,18.651123 55.480347,21.114258 C56.365845,23.036377 53.810547,24.472168 53.518738,24.627686 C53.518738,24.627686 34.510498,32.482178 34.510498,32.482178 C34.510498,32.482178 34.387085,32.967773 34.387085,32.967773 C34.253723,33.49585 34.249756,34.065918 34.374023,34.615967 C34.641785,35.794678 34.70105,36.784912 34.5636,37.56299 C34.5636,37.56299 34.540527,37.676025 34.540527,37.676025 C34.363037,38.520508 33.938843,39.014404 33.4234,39.294678 C32.91687,39.55786 32.34723,39.61328 31.954163,39.614258 C31.859863,39.61328 31.765625,39.614258 31.674316,39.60742 C31.497803,39.595215 31.338379,39.56128 31.190918,39.510742 C31.17688,39.50586 31.162903,39.500977 31.148865,39.496094 C31.003418,39.441162 30.869995,39.369385 30.750732,39.27466 C30.750732,39.27466 30.680542,39.21875 30.680542,39.21875 C30.623291,39.166992 30.566162,39.115967 30.515076,39.053223 C29.932373,38.34082 29.81305,36.96753 29.949463,35.994385 C29.949463,35.994385 30.190125,34.26831 30.190125,34.26831 C30.190125,34.26831 13.876465,41.010254 13.876465,41.010254 C12.008179,41.731445 10.908081,42.710938 10.513916,44.006104 C10.095764,45.38208 10.541016,46.972412 11.877808,48.86255 C12.479553,49.71289 13.115356,50.888916 12.741333,51.67334 ZM12.435425,44.584473 C12.635925,43.92456 13.366089,43.347168 14.626648,42.860596 C14.626648,42.860596 27.91858,37.368164 27.91858,37.368164 C27.970764,38.071777 28.129272,38.88965 28.51532,39.62964 C28.51532,39.62964 12.592834,46.04492 12.592834,46.04492 C12.376282,45.4729 12.314087,44.98047 12.435425,44.584473 ZM58.03961,25.94336 C56.89435,28.307373 54.574707,29.131348 54.50055,29.15918 C54.50055,29.15918 36.630493,36.359863 36.630493,36.359863 C36.60443,35.687744 36.512146,34.96582 36.33264,34.17993 C36.311584,34.088135 36.298523,33.996338 36.29358,33.906494 C36.29358,33.906494 56.62561,25.505615 56.62561,25.505615 C57.397827,25.187012 58.051636,24.697021 58.592163,24.114258 C58.490906,24.764648 58.313416,25.378906 58.03961,25.94336 ZM16.229187,36.260498 C20.46936,36.260498 23.918213,33.53174 23.918213,30.177002 C23.918213,28.137695 22.91333,27.22876 22.068909,26.824707 C21.130249,26.376465 20.075195,26.376465 19.237854,26.376465 C17.660278,26.376465 9.543213,28.392822 9.543213,32.17041 C9.543213,36.260498 12.642029,36.260498 16.229187,36.260498 ZM19.24585,28.370361 C19.249878,28.370361 19.253906,28.370361 19.257874,28.370361 C19.891724,28.370361 20.675903,28.371826 21.199463,28.62207 C21.413086,28.724854 21.912415,28.963379 21.912415,30.17749 C21.912415,32.395752 19.310059,34.26831 16.229187,34.26831 C11.548828,34.26831 11.548828,33.82495 11.548828,32.171387 C11.548828,30.39746 17.698425,28.370361 19.24585,28.370361 ZM18.554932,20.088623 C22.794983,20.088623 26.243835,17.359375 26.243835,14.004639 C26.243835,11.965332 25.238953,11.0563965 24.394592,10.652832 C23.459839,10.206543 22.37677,10.204102 21.574524,10.204102 C21.570557,10.204102 21.567505,10.204102 21.563477,10.204102 C19.986023,10.204102 11.868835,12.220459 11.868835,15.998047 C11.868835,20.088623 14.967712,20.088623 18.554932,20.088623 ZM21.571472,12.19751 C21.5755,12.19751 21.579529,12.19751 21.583496,12.19751 C22.217346,12.19751 23.001648,12.199951 23.525085,12.449951 C23.738708,12.55249 24.238037,12.790527 24.238037,14.005615 C24.238037,16.223389 21.635681,18.095947 18.554932,18.095947 C13.874512,18.095947 13.874512,17.652588 13.874512,15.999023 C13.874512,14.225098 20.024048,12.19751 21.571472,12.19751 ZM34.23761,20.94165 C34.23761,25.03125 37.33557,25.03125 40.923767,25.03125 C45.16388,25.03125 48.612732,22.302979 48.612732,18.948242 C48.612732,16.908203 47.60681,15.999023 46.763367,15.596436 C45.82776,15.148682 44.74463,15.147217 43.94336,15.147217 C43.93933,15.147217 43.93628,15.147217 43.932312,15.147217 C42.35388,15.14624 34.23761,17.163574 34.23761,20.94165 ZM43.938293,17.139404 C43.942383,17.139404 43.94641,17.139404 43.95044,17.139404 C44.58423,17.139404 45.369507,17.141602 45.89392,17.391357 C46.107544,17.493896 46.606995,17.733643 46.606995,18.948242 C46.606995,21.16504 44.004578,23.037354 40.923767,23.037354 C36.24341,23.037354 36.24341,22.594238 36.24341,20.94165 C36.24341,19.166748 42.392944,17.139404 43.938293,17.139404 Z"/>
</svg>