<svg xmlns="http://www.w3.org/2000/svg"
 xmlns:xlink="http://www.w3.org/1999/xlink"
 width="61px" height="52px"  viewBox="0 0 61 52">
<path fill-rule="evenodd"  fill="#8eaa41"
 d="M56.14917,32.286865 C56.14917,32.286865 56.151184,27.843994 56.151184,27.843994 C56.35974,27.830322 56.566406,27.797363 56.768616,27.744873 C57.707214,27.483643 58.458374,26.784668 58.781677,25.872314 C58.94867,25.404541 59.020874,24.908691 58.99408,24.412842 C58.841003,22.369385 57.102844,20.802246 55.037354,20.845459 C55.037354,20.845459 54.968445,20.845459 54.968445,20.845459 C52.110107,9.756592 42.038635,1.9992676 30.499939,1.9992676 C18.961243,1.9992676 8.889954,9.756592 6.031494,20.845459 C6.031494,20.845459 5.9624634,20.845459 5.9624634,20.845459 C3.8971558,20.802246 2.1588135,22.369385 2.0059204,24.412842 C1.9789429,24.908203 2.0512695,25.403564 2.2183228,25.870361 C2.5409546,26.783691 3.2923584,27.483643 4.2313232,27.744873 C4.434265,27.797363 4.6417847,27.83081 4.8511353,27.844482 C4.8511353,27.844482 4.8511353,32.286865 4.8511353,32.286865 C3.1747437,32.709473 2.0013428,34.206543 2.0013428,35.921875 C2.0013428,37.63745 3.1747437,39.134766 4.8511353,39.557373 C4.8511353,39.557373 4.8511353,45.34497 4.8511353,45.34497 C4.8548584,48.466553 7.4049683,50.99585 10.55188,50.99951 C10.55188,50.99951 50.448303,50.99951 50.448303,50.99951 C53.595215,50.99585 56.145264,48.466064 56.14911,45.34497 C56.14911,45.34497 56.14911,39.557373 56.14911,39.557373 C57.82544,39.134766 58.99884,37.63794 58.998962,35.922363 C58.99884,34.206543 57.82556,32.709473 56.14917,32.286865 ZM30.499939,3.8845215 C40.98517,3.9072266 50.180237,10.833252 53.017883,20.845459 C53.017883,20.845459 7.9819336,20.845459 7.9819336,20.845459 C10.819702,10.833252 20.01477,3.9072266 30.499939,3.8845215 ZM4.7609863,25.935303 C4.4089355,25.843506 4.126526,25.582764 4.008728,25.241455 C3.9250488,25.007324 3.8893433,24.759766 3.9038696,24.512451 C4.015991,23.476074 4.9124756,22.700195 5.9624634,22.730225 C5.9624634,22.730225 55.037598,22.730225 55.037598,22.730225 C56.087585,22.700195 56.98401,23.476562 57.09607,24.512451 C57.110474,24.760254 57.07489,25.00879 56.991272,25.24292 C56.872803,25.584229 56.590515,25.843506 56.23889,25.935303 C55.9032,26.023682 55.546997,25.998047 55.227722,25.86206 C55.201416,25.851318 55.173096,25.844482 55.14746,25.832031 C55.05139,25.785889 54.960205,25.730957 54.87506,25.667236 C54.862366,25.658203 54.84778,25.652344 54.83539,25.642578 C54.82727,25.63623 54.818054,25.632324 54.809753,25.625977 C54.63916,25.496338 54.460022,25.37793 54.2735,25.271973 C54.223877,25.243408 54.173523,25.216553 54.122925,25.19043 C53.9292,25.085938 53.728577,24.995605 53.522583,24.918457 C53.522583,24.918457 53.520386,24.91748 53.520386,24.91748 C52.67621,24.607666 51.76172,24.535889 50.878784,24.710205 C49.54126,24.971924 48.38672,25.802734 47.72003,26.981934 C47.238342,27.828857 46.34131,28.35962 45.36133,28.378174 C45.36133,28.378174 45.355286,28.378174 45.355286,28.378174 C45.19397,28.374268 45.033142,28.357666 44.87445,28.328613 C43.977905,28.213379 43.181213,27.704102 42.704834,26.94165 C42.59192,26.762451 42.467773,26.590576 42.33313,26.426758 C42.212463,26.28125 42.0838,26.142334 41.94745,26.01123 C41.935547,26.0 41.925232,25.986328 41.913086,25.975098 C41.02002,25.121582 39.831787,24.638672 38.591736,24.625244 C38.5766,24.625244 38.56201,24.621826 38.546814,24.621826 C38.546814,24.621826 38.53784,24.622803 38.53784,24.622803 C38.496643,24.622803 38.45642,24.616455 38.41504,24.617432 C36.753357,24.64209 35.23059,25.542969 34.42035,26.982422 C33.92688,27.859863 32.039917,28.384033 30.499939,28.384033 C30.243774,28.38208 29.987915,28.367432 29.733337,28.338867 C29.701782,28.335938 29.670105,28.331055 29.638367,28.327637 C28.784058,28.248047 27.956055,27.991943 27.207642,27.575928 C26.952637,27.432129 26.737,27.228516 26.579529,26.982422 C25.769287,25.542969 24.246704,24.64209 22.5849,24.617432 C22.544067,24.616455 22.50232,24.615967 22.461609,24.615967 C22.34851,24.615967 22.23816,24.629639 22.126648,24.637207 C22.051514,24.642578 21.97528,24.643066 21.900818,24.651367 C21.753662,24.668457 21.610046,24.697021 21.466309,24.72705 C21.405518,24.739746 21.3432,24.747559 21.28302,24.762695 C21.141296,24.79712 21.003784,24.844238 20.866455,24.891846 C20.806213,24.912598 20.744202,24.92871 20.684875,24.951904 C20.55951,25.000977 20.439392,25.06128 20.318604,25.120117 C20.251648,25.153076 20.182373,25.180664 20.117004,25.216553 C20.011597,25.274902 19.912048,25.343018 19.810913,25.408936 C19.736816,25.457031 19.659912,25.500244 19.588379,25.552246 C19.500793,25.61621 19.420105,25.690186 19.336609,25.760498 C19.259216,25.824707 19.178589,25.885254 19.104858,25.954346 C19.02948,26.026123 18.962158,26.106445 18.89093,26.183105 C18.817627,26.261719 18.740662,26.33545 18.671875,26.41919 C18.581299,26.529785 18.500671,26.651123 18.41858,26.770752 C18.378235,26.829346 18.332764,26.882324 18.294495,26.942627 C18.294495,26.942627 18.292297,26.946045 18.292297,26.946045 C18.167786,27.138672 18.02301,27.317383 17.860596,27.479248 C17.825134,27.517578 17.789429,27.554932 17.752136,27.590332 C17.60431,27.726318 17.443176,27.846436 17.270813,27.950195 C17.270813,27.950195 17.270386,27.949707 17.270386,27.949707 C17.210083,27.986572 17.148865,28.01831 17.087463,28.050293 C16.92694,28.1333 16.758911,28.200928 16.58551,28.253174 C16.58551,28.253174 16.560608,28.260498 16.560608,28.260498 C16.511597,28.27417 16.461365,28.286377 16.404236,28.299316 C16.208923,28.343994 16.009583,28.369385 15.809143,28.374756 C15.809143,28.374756 15.789673,28.375732 15.789673,28.375732 C15.71051,28.376709 15.631287,28.373291 15.552429,28.365479 C15.52417,28.364014 15.497925,28.355713 15.46991,28.353271 C15.461914,28.351807 15.455444,28.346924 15.447327,28.345459 C14.602234,28.223633 13.861633,27.720947 13.442566,26.982422 C12.775879,25.802734 11.621338,24.971924 10.283813,24.710693 C9.920837,24.63916 9.550903,24.60913 9.181091,24.62085 C8.087891,24.614502 7.024536,24.974854 6.1639404,25.643555 C5.7686768,25.954346 5.2489014,26.0625 4.7609863,25.935303 ZM41.6214,32.42871 C41.443115,32.251953 41.201477,32.152832 40.949524,32.152832 C40.949524,32.152832 27.650024,32.152832 27.650024,32.152832 C27.650024,32.152832 27.650024,29.82666 27.650024,29.82666 C27.714539,29.84668 27.78064,29.860352 27.845581,29.878662 C28.029785,29.932129 28.21283,29.985596 28.396484,30.026367 C28.410767,30.029785 28.424988,30.03125 28.439392,30.034668 C29.11615,30.183105 29.806702,30.261475 30.499817,30.268066 C30.51892,30.268066 30.54303,30.266113 30.562378,30.266113 C30.591553,30.266113 30.647522,30.268066 30.662231,30.268066 C32.23932,30.268066 35.19037,29.769531 36.241333,27.900635 C36.71051,27.071777 37.58075,26.544922 38.53833,26.510254 C38.70105,26.516602 38.862854,26.535645 39.022522,26.567627 C39.09613,26.579834 39.173035,26.580322 39.244934,26.597412 C39.73529,26.720215 40.18689,26.96289 40.55841,27.302979 C40.56549,27.308838 40.574036,27.313232 40.580933,27.319824 C40.778442,27.503906 40.950867,27.712402 41.094177,27.941406 C41.999207,29.424072 43.63678,30.31128 45.38379,30.265625 C45.400024,30.265137 45.41559,30.261475 45.431885,30.261475 C47.13141,30.270508 48.70337,29.367432 49.54077,27.900635 C50.03174,27.032959 50.960205,26.499756 51.963013,26.509277 C51.963013,26.509277 51.96399,26.509277 51.96399,26.509277 C52.126648,26.516113 52.28839,26.536133 52.447693,26.56958 C52.52368,26.585205 52.596375,26.609863 52.67035,26.631348 C52.78595,26.664307 52.89923,26.704102 53.009888,26.750244 C53.06891,26.775635 53.127625,26.800781 53.184753,26.829834 C53.352905,26.91333 53.512573,27.011475 53.661682,27.124756 C53.845398,27.268555 54.04309,27.39331 54.251648,27.498535 C54.251648,27.498535 54.2489,32.152832 54.2489,32.152832 C54.2489,32.152832 46.64917,32.152832 46.64917,32.152832 C46.397217,32.152832 46.155457,32.251953 45.977356,32.42871 C45.799133,32.60498 45.69922,32.84497 45.69928,33.09497 C45.69928,33.09497 45.69928,39.69043 45.69928,39.69043 C45.69928,40.731934 44.848633,41.57544 43.799316,41.57544 C42.74994,41.57544 41.899353,40.731934 41.899353,39.69043 C41.899353,39.69043 41.899353,33.09497 41.899353,33.09497 C41.89966,32.84497 41.79962,32.60547 41.6214,32.42871 ZM39.999634,34.037598 C39.999634,34.037598 39.999634,37.80664 39.999634,37.80664 C39.999634,37.80664 27.650024,37.80664 27.650024,37.80664 C27.650024,37.80664 27.650024,34.037598 27.650024,34.037598 C27.650024,34.037598 39.999634,34.037598 39.999634,34.037598 ZM21.000366,32.152832 C20.475647,32.152832 20.050415,32.574463 20.050415,33.09546 C20.050415,34.135742 19.19983,34.979736 18.150513,34.979736 C17.101196,34.979736 16.250488,34.135742 16.250488,33.09546 C16.250488,33.09546 16.250488,30.242432 16.250488,30.242432 C16.545288,30.209473 16.836243,30.148682 17.119507,30.06128 C17.119507,30.06128 17.130005,30.05835 17.130005,30.05835 C17.136475,30.056396 17.229248,30.027832 17.236572,30.024902 C17.236572,30.024902 17.245056,30.021973 17.245056,30.021973 C17.395203,29.973389 17.542053,29.91748 17.686646,29.854004 C17.686646,29.854004 17.703308,29.847656 17.703308,29.847656 C17.759888,29.82373 17.816528,29.798584 17.866577,29.77417 C17.881775,29.766113 17.89795,29.757324 17.913147,29.749512 C18.018982,29.697021 18.121582,29.63916 18.223633,29.578125 C18.252258,29.561523 18.276184,29.54834 18.307373,29.529053 C18.307373,29.529053 18.450134,29.442139 18.450134,29.442139 C18.46521,29.431885 18.483032,29.41626 18.498047,29.405273 C18.587158,29.343994 18.67218,29.2771 18.757446,29.209473 C18.788025,29.184814 18.811096,29.170654 18.844482,29.143555 C18.895386,29.104492 18.944641,29.064697 18.992859,29.021484 C19.006836,29.008545 19.020813,28.993896 19.034668,28.980713 C19.070679,28.947754 19.105225,28.912842 19.140503,28.87915 C19.20929,28.810303 19.280518,28.736084 19.362976,28.647217 C19.401978,28.607422 19.441895,28.566895 19.47992,28.520752 C19.47992,28.520752 19.491272,28.505371 19.491272,28.505371 C19.642212,28.32666 19.7807,28.138184 19.905762,27.941406 C20.467957,27.036377 21.466614,26.48999 22.53778,26.500732 C23.527039,26.512207 24.435486,27.04541 24.921143,27.900635 C25.03955,28.104736 25.181396,28.294678 25.34375,28.466553 C25.417114,28.547607 25.499634,28.618896 25.580688,28.69336 C25.639221,28.74707 25.686829,28.804932 25.750305,28.855957 C25.750305,28.855957 25.750305,42.518555 25.750305,42.518555 C25.750305,43.559814 24.899658,44.40381 23.850342,44.40381 C22.801025,44.40381 21.95044,43.559814 21.95044,42.518555 C21.95044,42.518555 21.95044,38.74878 21.95044,38.74878 C21.95044,38.74878 21.95044,33.09546 21.95044,33.09546 C21.950317,32.57495 21.524963,32.152832 21.000366,32.152832 ZM14.350708,30.065674 C14.350708,30.065674 14.350708,32.152832 14.350708,32.152832 C14.350708,32.152832 6.7509766,32.152832 6.7509766,32.152832 C6.7509766,32.152832 6.7509766,27.565674 6.7509766,27.565674 C7.0186157,27.451416 7.2703247,27.302979 7.4995728,27.124756 C7.987549,26.747314 8.583069,26.531738 9.201416,26.508545 C9.3845215,26.508545 9.567322,26.524902 9.747498,26.557861 C10.542175,26.707031 11.228821,27.198975 11.62146,27.900635 C12.20929,28.949707 13.189575,29.72754 14.350708,30.065674 ZM5.8009644,37.80664 C4.7522583,37.805176 3.9025269,36.96216 3.901062,35.921875 C3.9025269,34.883057 4.7504272,34.040527 5.7979126,34.037598 C5.7979126,34.037598 5.8009644,34.038574 5.8009644,34.038574 C5.8009644,34.038574 14.471313,34.037598 14.471313,34.037598 C14.508301,34.16333 14.55188,34.287598 14.602173,34.40918 C14.624878,34.46924 14.64032,34.531982 14.666077,34.59082 C14.7561035,34.79712 14.864624,34.99536 14.9904175,35.183105 C15.018555,35.224365 15.053528,35.26001 15.083191,35.30078 C15.18573,35.443115 15.298035,35.578125 15.419434,35.704346 C15.475037,35.761963 15.536011,35.81201 15.595215,35.865967 C15.703247,35.965088 15.817078,36.058838 15.935852,36.144775 C16.006348,36.195312 16.078552,36.241455 16.152527,36.28711 C16.27539,36.362793 16.402527,36.43164 16.533142,36.49243 C16.61139,36.529297 16.688354,36.566162 16.769287,36.597412 C16.916138,36.652832 17.066284,36.69922 17.218933,36.73633 C17.29248,36.75464 17.36322,36.778564 17.438477,36.793457 C18.333496,36.970215 19.26294,36.81543 20.05072,36.3584 C20.05072,36.3584 20.05072,37.80664 20.05072,37.80664 C20.05072,37.80664 5.8009644,37.80664 5.8009644,37.80664 C5.8009644,37.80664 5.8009644,37.80664 5.8009644,37.80664 ZM54.248962,45.34497 C54.246582,47.42578 52.546265,49.11255 50.44818,49.11499 C50.44818,49.11499 10.551697,49.11499 10.551697,49.11499 C8.453613,49.11255 6.753418,47.42578 6.7509766,45.34497 C6.7509766,45.34497 6.7509766,39.690918 6.7509766,39.690918 C6.7509766,39.690918 20.050415,39.691895 20.050415,39.691895 C20.050415,39.691895 20.050415,42.519043 20.050415,42.519043 C20.050415,44.600586 21.751648,46.288086 23.85022,46.288086 C25.948792,46.288086 27.650024,44.600586 27.650024,42.519043 C27.650024,42.519043 27.650024,39.690918 27.650024,39.690918 C27.650024,39.690918 39.99945,39.690918 39.99945,39.690918 C39.99945,41.772705 41.700745,43.460205 43.799316,43.460205 C45.897827,43.460205 47.59912,41.772705 47.59912,39.690918 C47.59912,39.690918 54.24878,39.690918 54.24878,39.690918 C54.24878,39.690918 54.24878,45.34497 54.24878,45.34497 C54.24878,45.34497 54.248962,45.34497 54.248962,45.34497 ZM55.198914,37.80664 C55.198914,37.80664 47.599182,37.80664 47.599182,37.80664 C47.599182,37.80664 47.599182,34.037598 47.599182,34.037598 C47.599182,34.037598 55.198914,34.037598 55.198914,34.037598 C56.24829,34.037598 57.098938,34.881104 57.098938,35.921875 C57.098938,36.963135 56.24829,37.80664 55.198914,37.80664 ZM25.078552,6.988037 C25.078552,6.988037 23.17865,8.872803 23.17865,8.872803 C22.935913,9.109863 22.840088,9.458008 22.927551,9.784912 C23.015076,10.112061 23.2724,10.3671875 23.601868,10.454102 C23.931396,10.541016 24.282532,10.4453125 24.521912,10.204834 C24.521912,10.204834 26.421814,8.3203125 26.421814,8.3203125 C26.788391,7.95166 26.786377,7.3586426 26.417236,6.9924316 C26.048096,6.626709 25.450195,6.6242676 25.078552,6.988037 ZM48.549255,47.230225 C48.80121,47.230225 49.042786,47.131104 49.220825,46.954346 C49.220825,46.954346 51.12085,45.07007 51.12085,45.07007 C51.490356,44.701904 51.48993,44.105713 51.119385,43.738525 C50.749023,43.37085 50.14868,43.37085 49.777466,43.73755 C49.777466,43.73755 47.877563,45.621826 47.877563,45.621826 C47.69934,45.798584 47.599182,46.03833 47.599182,46.288086 C47.599182,46.538086 47.69934,46.777588 47.877563,46.954346 C48.055603,47.131104 48.297302,47.230225 48.549255,47.230225 ZM13.679077,42.79492 C13.679077,42.79492 11.779114,44.679688 11.779114,44.679688 C11.536377,44.917236 11.440552,45.26538 11.528076,45.59204 C11.61554,45.918945 11.872864,46.174316 12.202332,46.260986 C12.53186,46.347412 12.882874,46.252686 13.1223755,46.012207 C13.1223755,46.012207 15.022278,44.12744 15.022278,44.12744 C15.388855,43.758545 15.386841,43.165527 15.0177,42.799805 C14.648621,42.433594 14.050659,42.431152 13.679077,42.79492 ZM29.82837,14.526611 C29.82837,14.526611 27.928345,16.411133 27.928345,16.411133 C27.68573,16.648682 27.589783,16.996826 27.677307,17.323242 C27.76477,17.650146 28.022095,17.905518 28.351562,17.992432 C28.681152,18.078857 29.032227,17.98413 29.271606,17.743408 C29.271606,17.743408 31.17157,15.858643 31.17157,15.858643 C31.538208,15.48999 31.536194,14.896973 31.166992,14.531006 C30.797913,14.164795 30.200012,14.162842 29.82837,14.526611 ZM34.971497,8.872803 C34.59973,8.509033 34.001892,8.510986 33.632812,8.877197 C33.26367,9.24292 33.261658,9.8359375 33.628235,10.204834 C33.628235,10.204834 35.528137,12.0896 35.528137,12.0896 C35.899902,12.453369 36.49768,12.451416 36.86682,12.085205 C37.236023,11.718994 37.238037,11.125732 36.8714,10.75708 C36.8714,10.75708 34.971497,8.872803 34.971497,8.872803 ZM17.872192,12.641357 C17.500488,12.278076 16.902588,12.280029 16.53357,12.64624 C16.164368,13.012451 16.162354,13.605713 16.528992,13.973877 C16.528992,13.973877 18.428894,15.858643 18.428894,15.858643 C18.800598,16.221924 19.398376,16.220459 19.767578,15.85376 C20.136719,15.488037 20.138733,14.89502 19.772156,14.526611 C19.772156,14.526611 17.872192,12.641357 17.872192,12.641357 ZM34.021484,42.79492 C33.64972,42.431152 33.05194,42.433594 32.6828,42.799805 C32.3136,43.165527 32.311584,43.758545 32.678223,44.12744 C32.678223,44.12744 34.578125,46.012207 34.578125,46.012207 C34.94983,46.37549 35.54773,46.373535 35.91681,46.007324 C36.28595,45.641113 36.287964,45.04785 35.921387,44.679688 C35.921387,44.679688 34.021484,42.79492 34.021484,42.79492 ZM42.571045,13.583984 C42.1994,13.220215 41.601562,13.222656 41.23236,13.588867 C40.86328,13.954834 40.86133,14.547852 41.227905,14.916504 C41.227905,14.916504 43.127808,16.80127 43.127808,16.80127 C43.499573,17.16455 44.09729,17.162598 44.46649,16.796387 C44.835632,16.430176 44.837646,15.837158 44.47107,15.46875 C44.47107,15.46875 42.571045,13.583984 42.571045,13.583984 Z"/>
</svg>