<svg xmlns="http://www.w3.org/2000/svg"
 xmlns:xlink="http://www.w3.org/1999/xlink"
 width="27px" height="18px"  viewBox="0 0 27 18">
<path fill-rule="evenodd"  fill="#535353"
 d="M20.52069,3.659668 C20.506165,3.6533203 20.491333,3.6376953 20.47699,3.6235352 C19.611084,2.871582 18.593567,2.5117188 17.423706,2.555664 C17.423706,2.555664 17.387878,2.477539 17.387878,2.477539 C17.394897,2.4707031 17.40216,2.4707031 17.409424,2.4707031 C18.470459,2.244629 19.09845,2.012207 19.285767,1.7602539 C19.351074,1.5561523 19.271912,1.4433594 19.040466,1.4150391 C18.506409,1.4785156 18.01538,1.5834961 17.575256,1.7451172 C18.131348,1.4150391 18.347717,1.1835938 18.224792,1.0625 C17.676453,1.0771484 17.084717,1.3369141 16.46344,1.8515625 C16.694519,1.4848633 16.781311,1.2875977 16.723694,1.2529297 C16.427917,1.4433594 16.16742,1.6474609 15.94397,1.8647461 C15.47467,2.3510742 15.099243,2.8017578 14.810547,3.209961 C14.810547,3.209961 14.796265,3.2456055 14.796265,3.2456055 C14.05304,4.3632812 13.533325,5.489746 13.222656,6.6376953 C13.222656,6.6376953 13.107483,6.7231445 13.107483,6.7231445 C13.107483,6.7231445 13.0859375,6.742676 13.0859375,6.742676 C12.638184,6.2216797 12.104126,5.786133 11.462097,5.4331055 C10.704041,4.976074 9.81604,4.5390625 8.790955,4.1186523 C7.6723022,3.5825195 6.5389404,3.1396484 5.3911133,2.7949219 C5.3843384,3.9838867 6.011963,4.934082 7.2609863,5.6240234 C7.2609863,5.6240234 7.2609863,5.645508 7.2609863,5.645508 C6.8203735,5.637207 6.3945923,5.701172 5.9831543,5.821289 C6.062317,6.9257812 6.9071045,7.6850586 8.50946,8.108398 C8.50946,8.108398 8.501831,8.128418 8.501831,8.128418 C7.8742065,8.094727 7.35437,8.299805 6.9501953,8.721191 C7.477173,9.678223 8.408325,10.135254 9.758484,10.099609 C9.491028,10.227539 9.281921,10.366699 9.144775,10.522461 C8.899292,10.762207 8.819763,11.043945 8.899292,11.3671875 C9.187988,11.853516 9.707642,12.077148 10.472839,12.042969 C10.472839,12.042969 10.472839,12.042969 10.472839,12.042969 C10.472839,12.042969 10.516052,12.092285 10.516052,12.092285 C10.508911,12.099121 10.50177,12.105957 10.494385,12.11377 C9.173462,13.379395 7.578491,13.950684 5.708374,13.831055 C5.708374,13.831055 5.6796265,13.845215 5.6796265,13.845215 C4.5394897,13.836914 3.3197021,13.331543 1.9987793,12.316895 C3.3269653,14.090332 5.088135,15.371582 7.2681274,16.174316 C9.765259,16.941895 12.263184,16.998535 14.753174,16.342773 C14.753174,16.342773 14.796265,16.342773 14.796265,16.342773 C17.21466,15.694824 19.264526,14.365234 20.953064,12.352539 C21.732727,11.296387 22.223755,10.291504 22.418762,9.326172 C23.681702,9.368164 24.591125,9.029785 25.154114,8.3125 C25.154114,8.3125 25.140259,8.291504 25.140259,8.291504 C24.721252,8.431641 23.898499,8.390137 22.678162,8.157715 C22.678162,8.157715 22.678162,8.030762 22.678162,8.030762 C22.678162,8.024902 22.678162,8.024902 22.685791,8.030762 C24.021118,7.890625 24.808044,7.489746 25.060669,6.82666 C24.129028,7.166504 23.212402,7.171875 22.302734,6.8554688 C22.13733,5.6865234 21.545715,4.6240234 20.52069,3.659668 Z"/>
</svg>